<svg xmlns="http://www.w3.org/2000/svg" version="1.1" xmlns:xlink="http://www.w3.org/1999/xlink" xmlns:svgjs="http://svgjs.com/svgjs" width="1440" height="560" preserveAspectRatio="none" viewBox="0 0 1440 560">
    <g mask="url(&quot;#SvgjsMask1000&quot;)" fill="none">
        <rect width="1440" height="560" x="0" y="0" fill="#121417"></rect>
        <path d="M0,389.431C70.809,378.409,118.507,316.819,180.459,280.8C246.154,242.605,330.049,232.487,375.144,171.323C423.762,105.381,448.744,18.166,433.433,-62.318C418.323,-141.748,349.965,-196.39,294.078,-254.82C240.834,-310.487,192.056,-383.465,115.805,-394.397C40.574,-405.183,-21.597,-340.928,-91.034,-310.034C-150.022,-283.789,-210.316,-265.964,-261.451,-226.548C-322.667,-179.361,-396.059,-134.523,-415.707,-59.77C-435.773,16.575,-399.182,95.542,-364.78,166.589C-330.971,236.413,-286.779,302.78,-220.576,343.223C-155.145,383.194,-75.762,401.224,0,389.431" fill="#090a0b"></path>
        <path d="M1440 1042.733C1528.674 1059.83 1608.694 989.491 1685.714 942.3389999999999 1764.329 894.21 1863.334 853.979 1891.617 766.2470000000001 1919.777 678.898 1853.254 592.284 1826.908 504.371 1804.817 430.655 1798.751 350.949 1749.454 291.857 1699.69 232.204 1629.43 188.618 1552.809 175.80700000000002 1480.019 163.637 1413.766 210.034 1341.224 223.601 1258.034 239.159 1165.028 213.32100000000003 1095.3519999999999 261.361 1020.0930000000001 313.251 959.155 398.905 954.552 490.203 950.008 580.3389999999999 1015.481 657.637 1071.819 728.143 1118.386 786.421 1191.75 809.575 1248.465 858.034 1317.29 916.841 1351.11 1025.594 1440 1042.733" fill="#0d0e10"></path>
    </g>
    <defs>
        <mask id="SvgjsMask1000">
            <rect width="1440" height="560" fill="#ffffff"></rect>
        </mask>
    </defs>
</svg>