<svg xmlns="http://www.w3.org/2000/svg" xmlns:xlink="http://www.w3.org/1999/xlink" width="50" zoomAndPan="magnify" viewBox="0 0 37.5 37.499999" height="50" preserveAspectRatio="xMidYMid meet" version="1.0"><defs><g/><clipPath id="3212c9acab"><path d="M 7 8 L 30 8 L 30 30 L 7 30 Z M 7 8 " clip-rule="nonzero"/></clipPath><clipPath id="72cabe7b85"><path d="M 23.300781 4.480469 L 33.160156 23.867188 L 13.773438 33.726562 L 3.914062 14.339844 Z M 23.300781 4.480469 " clip-rule="nonzero"/></clipPath><clipPath id="8c2833b4df"><path d="M 23.300781 4.480469 L 33.160156 23.867188 L 13.773438 33.726562 L 3.914062 14.339844 Z M 23.300781 4.480469 " clip-rule="nonzero"/></clipPath><clipPath id="fcf1b5e0eb"><path d="M 26.734375 12.023438 C 22.742188 7.519531 15.816406 7.035156 11.296875 10.941406 C 10.320312 11.785156 9.523438 12.785156 8.914062 13.902344 L 8.941406 13.917969 L 8.914062 13.902344 C 7.863281 15.820312 7.4375 17.988281 7.671875 20.171875 C 7.914062 22.40625 8.839844 24.488281 10.347656 26.1875 C 14.335938 30.691406 21.253906 31.175781 25.769531 27.273438 C 30.289062 23.363281 30.726562 16.53125 26.734375 12.023438 Z M 9.984375 24.152344 C 10.152344 24.34375 10.300781 24.492188 10.410156 24.597656 C 11.152344 25.300781 12.1875 25.347656 13.285156 25.394531 C 14.550781 25.445312 15.988281 25.507812 17.210938 26.625 C 18.246094 27.574219 19.261719 28.398438 20.417969 28.769531 C 19.246094 28.4375 18.21875 27.660156 17.210938 26.800781 C 15.992188 25.757812 14.589844 25.652344 13.351562 25.558594 C 12.238281 25.476562 11.191406 25.398438 10.4375 24.671875 C 9.769531 24.023438 9.140625 23.179688 8.667969 22.1875 C 9.097656 23.054688 9.59375 23.714844 9.984375 24.152344 Z M 9.511719 23.472656 C 9.664062 23.675781 9.808594 23.851562 9.941406 24.003906 C 10.128906 24.214844 10.292969 24.378906 10.414062 24.492188 C 11.140625 25.164062 12.15625 25.175781 13.230469 25.183594 C 14.53125 25.195312 16.003906 25.210938 17.238281 26.417969 C 18.253906 27.40625 19.195312 28.265625 20.324219 28.6875 C 19.21875 28.304688 18.238281 27.503906 17.238281 26.59375 C 16.003906 25.464844 14.5625 25.402344 13.289062 25.347656 C 12.199219 25.304688 11.171875 25.257812 10.441406 24.566406 C 10.320312 24.445312 9.941406 24.070312 9.511719 23.472656 Z M 17.179688 27.003906 C 15.984375 26.054688 14.625 25.90625 13.425781 25.777344 C 12.285156 25.65625 11.210938 25.539062 10.4375 24.777344 C 9.832031 24.183594 9.265625 23.429688 8.8125 22.554688 C 9.21875 23.316406 9.671875 23.902344 10.019531 24.296875 C 10.171875 24.46875 10.304688 24.601562 10.40625 24.703125 C 11.167969 25.441406 12.226562 25.519531 13.347656 25.605469 C 14.578125 25.699219 15.972656 25.804688 17.179688 26.832031 C 18.214844 27.71875 19.269531 28.515625 20.484375 28.835938 C 19.253906 28.550781 18.1875 27.808594 17.179688 27.003906 Z M 20.523438 28.894531 C 19.242188 28.652344 18.144531 27.949219 17.148438 27.210938 C 15.980469 26.351562 14.722656 26.171875 13.511719 26 C 12.339844 25.835938 11.234375 25.683594 10.433594 24.882812 C 9.832031 24.28125 9.265625 23.523438 8.8125 22.644531 C 9.234375 23.4375 9.699219 24.039062 10.054688 24.441406 C 10.1875 24.59375 10.308594 24.714844 10.402344 24.808594 C 11.1875 25.582031 12.273438 25.699219 13.417969 25.824219 C 14.667969 25.960938 15.964844 26.101562 17.148438 27.042969 C 18.175781 27.859375 19.261719 28.617188 20.523438 28.894531 Z M 10.066406 24.5625 C 10.171875 24.683594 10.285156 24.800781 10.398438 24.914062 C 11.210938 25.726562 12.324219 25.882812 13.503906 26.050781 C 14.710938 26.21875 15.960938 26.394531 17.117188 27.25 C 18.050781 27.9375 19.15625 28.660156 20.425781 28.925781 C 19.21875 28.714844 18.136719 28.117188 17.117188 27.417969 C 15.984375 26.644531 14.777344 26.4375 13.613281 26.234375 C 12.402344 26.027344 11.261719 25.828125 10.429688 24.988281 C 9.769531 24.320312 9.152344 23.464844 8.679688 22.46875 C 9.054688 23.238281 9.523438 23.953125 10.066406 24.5625 Z M 10.09375 24.699219 C 10.191406 24.8125 10.292969 24.917969 10.394531 25.019531 C 11.238281 25.875 12.386719 26.074219 13.601562 26.28125 C 14.761719 26.484375 15.960938 26.691406 17.085938 27.460938 C 18.066406 28.128906 19.382812 28.914062 20.886719 29.046875 C 20.957031 29.054688 21.023438 29.058594 21.09375 29.0625 C 19.609375 29.027344 18.304688 28.394531 17.085938 27.625 C 15.996094 26.9375 14.84375 26.703125 13.734375 26.476562 C 12.480469 26.222656 11.296875 25.984375 10.425781 25.09375 C 9.785156 24.433594 9.179688 23.59375 8.710938 22.621094 C 9.085938 23.382812 9.554688 24.09375 10.09375 24.699219 Z M 10.210938 25.371094 C 10.261719 25.433594 10.316406 25.492188 10.371094 25.550781 C 11.496094 26.753906 12.996094 27.210938 14.589844 27.691406 C 15.359375 27.925781 16.160156 28.164062 16.9375 28.503906 C 18.507812 29.183594 20.003906 29.433594 21.441406 29.25 C 20.007812 29.46875 18.511719 29.269531 16.929688 28.660156 C 16.296875 28.414062 15.652344 28.210938 15.027344 28.011719 C 13.285156 27.464844 11.636719 26.945312 10.410156 25.621094 C 10.132812 25.316406 9.867188 24.988281 9.617188 24.636719 C 9.804688 24.890625 10 25.136719 10.210938 25.375 Z M 9.570312 24.460938 C 9.761719 24.730469 9.96875 24.992188 10.1875 25.238281 C 10.25 25.308594 10.3125 25.378906 10.375 25.445312 C 11.417969 26.550781 12.808594 26.941406 14.28125 27.359375 C 15.167969 27.609375 16.082031 27.867188 16.96875 28.292969 C 18.296875 28.933594 19.554688 29.25 20.769531 29.246094 C 19.546875 29.289062 18.28125 29.023438 16.960938 28.453125 C 16.179688 28.113281 15.378906 27.871094 14.605469 27.636719 C 13.023438 27.160156 11.527344 26.707031 10.414062 25.515625 C 10.113281 25.191406 9.832031 24.839844 9.570312 24.460938 Z M 10.109375 24.824219 C 10.199219 24.929688 10.292969 25.03125 10.390625 25.128906 C 11.269531 26.03125 12.460938 26.273438 13.722656 26.527344 C 14.828125 26.753906 15.972656 26.984375 17.058594 27.667969 C 18.523438 28.59375 19.71875 29.035156 20.933594 29.097656 C 19.476562 29.0625 18.195312 28.492188 17.054688 27.832031 C 16.015625 27.230469 14.929688 26.980469 13.882812 26.734375 C 12.574219 26.433594 11.335938 26.144531 10.425781 25.199219 C 9.992188 24.75 9.582031 24.222656 9.214844 23.632812 C 9.484375 24.058594 9.78125 24.457031 10.109375 24.824219 Z M 10.136719 24.964844 C 10.21875 25.054688 10.300781 25.144531 10.386719 25.234375 C 11.308594 26.191406 12.550781 26.480469 13.867188 26.785156 C 14.914062 27.027344 15.996094 27.277344 17.027344 27.875 C 18.453125 28.703125 19.683594 29.105469 20.894531 29.144531 C 19.410156 29.140625 18.113281 28.613281 17.023438 28.039062 C 16.050781 27.523438 15.042969 27.261719 14.066406 27.007812 C 12.6875 26.652344 11.386719 26.316406 10.421875 25.304688 C 10.054688 24.917969 9.707031 24.484375 9.398438 24.011719 C 9.625 24.347656 9.871094 24.664062 10.136719 24.964844 Z M 10.160156 25.101562 C 10.234375 25.179688 10.304688 25.261719 10.382812 25.339844 C 11.355469 26.363281 12.664062 26.703125 14.050781 27.0625 C 15.023438 27.3125 16.03125 27.574219 16.996094 28.085938 C 18.007812 28.621094 19.195312 29.113281 20.542969 29.1875 C 19.40625 29.152344 18.230469 28.839844 16.992188 28.246094 C 16.101562 27.816406 15.1875 27.558594 14.300781 27.308594 C 12.832031 26.890625 11.449219 26.5 10.417969 25.40625 C 10.097656 25.066406 9.792969 24.6875 9.515625 24.28125 C 9.714844 24.566406 9.933594 24.839844 10.160156 25.101562 Z M 10.234375 25.507812 C 10.277344 25.558594 10.324219 25.609375 10.367188 25.65625 C 11.605469 26.996094 13.257812 27.515625 15.007812 28.066406 C 15.632812 28.265625 16.277344 28.46875 16.90625 28.710938 C 18.257812 29.230469 19.546875 29.453125 20.785156 29.378906 C 19.535156 29.492188 18.238281 29.320312 16.898438 28.863281 C 16.484375 28.722656 16.058594 28.589844 15.648438 28.457031 C 13.667969 27.832031 11.796875 27.238281 10.410156 25.722656 C 10.03125 25.3125 9.695312 24.875 9.394531 24.414062 C 9.648438 24.800781 9.929688 25.164062 10.234375 25.507812 Z M 10.257812 25.644531 C 10.292969 25.683594 10.328125 25.726562 10.363281 25.765625 C 11.761719 27.289062 13.640625 27.882812 15.628906 28.515625 C 16.039062 28.644531 16.464844 28.777344 16.878906 28.917969 C 18.230469 29.382812 19.539062 29.550781 20.796875 29.433594 C 19.527344 29.589844 18.210938 29.46875 16.867188 29.070312 L 16.667969 29.011719 C 14.398438 28.335938 12.050781 27.640625 10.40625 25.828125 C 10.378906 25.800781 10.351562 25.769531 10.324219 25.738281 C 10.03125 25.410156 9.765625 25.0625 9.519531 24.707031 C 9.75 25.03125 9.992188 25.347656 10.257812 25.644531 Z M 10.273438 25.777344 C 10.304688 25.808594 10.332031 25.839844 10.359375 25.871094 C 12.015625 27.691406 14.371094 28.390625 16.648438 29.070312 L 16.847656 29.128906 C 18.199219 29.53125 19.527344 29.648438 20.800781 29.496094 C 19.515625 29.6875 18.179688 29.621094 16.835938 29.277344 C 14.640625 28.71875 12.15625 27.886719 10.402344 25.933594 C 10.382812 25.914062 10.367188 25.894531 10.347656 25.875 C 10.148438 25.648438 9.960938 25.417969 9.785156 25.183594 C 9.941406 25.386719 10.105469 25.582031 10.273438 25.777344 Z M 10.394531 26.144531 C 10.199219 25.925781 10.015625 25.695312 9.839844 25.460938 C 9.996094 25.667969 10.160156 25.867188 10.332031 26.058594 L 10.351562 26.082031 C 11.890625 27.800781 14.054688 28.964844 16.789062 29.546875 C 18.082031 29.820312 19.359375 29.859375 20.589844 29.671875 C 16.941406 30.324219 13.027344 29.117188 10.398438 26.144531 Z M 16.804688 29.484375 C 14.082031 28.90625 11.925781 27.746094 10.398438 26.039062 L 10.378906 26.019531 C 10.1875 25.804688 10.007812 25.582031 9.835938 25.351562 C 9.984375 25.542969 10.136719 25.730469 10.300781 25.914062 C 10.316406 25.933594 10.335938 25.957031 10.355469 25.976562 C 12.121094 27.9375 14.613281 28.777344 16.820312 29.335938 C 18.386719 29.734375 19.945312 29.765625 21.425781 29.445312 C 19.949219 29.800781 18.382812 29.820312 16.804688 29.484375 Z M 25.625 27.308594 C 25.609375 27.324219 25.589844 27.339844 25.570312 27.355469 C 25.550781 27.371094 25.53125 27.386719 25.511719 27.402344 C 25.496094 27.414062 25.480469 27.429688 25.460938 27.441406 C 25.445312 27.453125 25.429688 27.46875 25.410156 27.480469 C 25.398438 27.492188 25.382812 27.503906 25.367188 27.515625 C 25.347656 27.527344 25.328125 27.542969 25.308594 27.558594 C 25.308594 27.558594 25.304688 27.5625 25.300781 27.566406 C 25.261719 27.59375 25.222656 27.621094 25.183594 27.652344 C 25.179688 27.652344 25.179688 27.652344 25.175781 27.65625 C 25.117188 27.695312 25.054688 27.738281 24.996094 27.777344 C 24.984375 27.785156 24.972656 27.792969 24.960938 27.800781 C 24.929688 27.820312 24.898438 27.84375 24.863281 27.867188 C 24.855469 27.871094 24.847656 27.875 24.839844 27.882812 C 24.753906 27.9375 24.667969 27.988281 24.582031 28.039062 C 24.550781 28.054688 24.523438 28.074219 24.492188 28.089844 C 24.429688 28.125 24.367188 28.160156 24.304688 28.195312 C 24.257812 28.21875 24.210938 28.246094 24.164062 28.269531 C 24.15625 28.273438 24.152344 28.273438 24.144531 28.277344 C 24.128906 28.285156 24.117188 28.292969 24.101562 28.300781 C 20.863281 29.898438 18.964844 28.042969 17.269531 26.386719 C 16.023438 25.167969 14.542969 25.152344 13.234375 25.140625 C 12.164062 25.132812 11.15625 25.125 10.445312 24.460938 C 10.09375 24.132812 7.726562 21.785156 7.804688 18.144531 C 7.820312 17.675781 7.871094 17.199219 7.964844 16.710938 C 7.96875 16.691406 7.972656 16.675781 7.976562 16.65625 C 7.992188 16.574219 8.011719 16.492188 8.03125 16.410156 C 8.046875 16.332031 8.066406 16.253906 8.085938 16.179688 C 8.09375 16.144531 8.105469 16.113281 8.113281 16.082031 C 8.144531 15.964844 8.175781 15.847656 8.210938 15.730469 C 8.253906 15.601562 8.296875 15.472656 8.339844 15.34375 C 8.347656 15.328125 8.351562 15.3125 8.355469 15.300781 C 8.394531 15.195312 8.433594 15.089844 8.476562 14.988281 C 8.496094 14.941406 8.511719 14.894531 8.53125 14.851562 C 8.550781 14.804688 8.570312 14.757812 8.59375 14.710938 C 8.601562 14.691406 8.609375 14.671875 8.617188 14.652344 C 8.621094 14.640625 8.625 14.632812 8.628906 14.625 C 8.65625 14.5625 8.683594 14.5 8.714844 14.441406 C 8.71875 14.433594 8.71875 14.425781 8.722656 14.417969 C 8.726562 14.414062 8.726562 14.410156 8.730469 14.40625 C 8.738281 14.386719 8.746094 14.367188 8.757812 14.351562 C 8.777344 14.304688 8.800781 14.257812 8.824219 14.214844 C 8.828125 14.203125 8.835938 14.191406 8.839844 14.183594 C 8.851562 14.164062 8.859375 14.144531 8.871094 14.125 C 8.878906 14.109375 8.882812 14.09375 8.894531 14.082031 C 8.917969 14.03125 8.941406 13.980469 8.96875 13.933594 C 9.578125 12.824219 10.382812 11.839844 11.351562 11.003906 C 15.835938 7.128906 22.707031 7.613281 26.667969 12.082031 C 30.628906 16.550781 30.210938 23.347656 25.726562 27.222656 C 25.695312 27.253906 25.660156 27.28125 25.625 27.308594 Z M 25.625 27.308594 " clip-rule="nonzero"/></clipPath><linearGradient x1="-157.773838" gradientTransform="matrix(0.0141224, 0.0277729, -0.0285034, 0.0144939, 23.296926, 4.483543)" y1="339.92001" x2="871.689962" gradientUnits="userSpaceOnUse" y2="339.92001" id="fb5ae6b23c"><stop stop-opacity="1" stop-color="rgb(16.099548%, 39.599609%, 94.499207%)" offset="0"/><stop stop-opacity="1" stop-color="rgb(16.099548%, 39.599609%, 94.499207%)" offset="0.0625"/><stop stop-opacity="1" stop-color="rgb(16.099548%, 39.599609%, 94.499207%)" offset="0.09375"/><stop stop-opacity="1" stop-color="rgb(15.789795%, 39.794922%, 94.604492%)" offset="0.0976562"/><stop stop-opacity="1" stop-color="rgb(15.480042%, 39.99176%, 94.709778%)" offset="0.101562"/><stop stop-opacity="1" stop-color="rgb(15.129089%, 40.213013%, 94.828796%)" offset="0.105469"/><stop stop-opacity="1" stop-color="rgb(14.779663%, 40.434265%, 94.949341%)" offset="0.109375"/><stop stop-opacity="1" stop-color="rgb(14.428711%, 40.655518%, 95.068359%)" offset="0.113281"/><stop stop-opacity="1" stop-color="rgb(14.079285%, 40.878296%, 95.188904%)" offset="0.117188"/><stop stop-opacity="1" stop-color="rgb(13.728333%, 41.099548%, 95.307922%)" offset="0.121094"/><stop stop-opacity="1" stop-color="rgb(13.378906%, 41.322327%, 95.428467%)" offset="0.125"/><stop stop-opacity="1" stop-color="rgb(13.027954%, 41.543579%, 95.547485%)" offset="0.128906"/><stop stop-opacity="1" stop-color="rgb(12.678528%, 41.766357%, 95.66803%)" offset="0.132812"/><stop stop-opacity="1" stop-color="rgb(12.327576%, 41.98761%, 95.787048%)" offset="0.136719"/><stop stop-opacity="1" stop-color="rgb(11.978149%, 42.210388%, 95.907593%)" offset="0.140625"/><stop stop-opacity="1" stop-color="rgb(11.627197%, 42.431641%, 96.026611%)" offset="0.144531"/><stop stop-opacity="1" stop-color="rgb(11.277771%, 42.654419%, 96.14563%)" offset="0.148437"/><stop stop-opacity="1" stop-color="rgb(10.926819%, 42.875671%, 96.264648%)" offset="0.152344"/><stop stop-opacity="1" stop-color="rgb(10.577393%, 43.096924%, 96.385193%)" offset="0.15625"/><stop stop-opacity="1" stop-color="rgb(10.22644%, 43.318176%, 96.504211%)" offset="0.160156"/><stop stop-opacity="1" stop-color="rgb(9.877014%, 43.540955%, 96.624756%)" offset="0.164062"/><stop stop-opacity="1" stop-color="rgb(9.526062%, 43.762207%, 96.743774%)" offset="0.167969"/><stop stop-opacity="1" stop-color="rgb(9.176636%, 43.984985%, 96.864319%)" offset="0.171875"/><stop stop-opacity="1" stop-color="rgb(8.825684%, 44.206238%, 96.983337%)" offset="0.175781"/><stop stop-opacity="1" stop-color="rgb(8.476257%, 44.429016%, 97.103882%)" offset="0.179688"/><stop stop-opacity="1" stop-color="rgb(8.125305%, 44.650269%, 97.2229%)" offset="0.183594"/><stop stop-opacity="1" stop-color="rgb(7.775879%, 44.873047%, 97.343445%)" offset="0.1875"/><stop stop-opacity="1" stop-color="rgb(7.424927%, 45.094299%, 97.462463%)" offset="0.191406"/><stop stop-opacity="1" stop-color="rgb(7.0755%, 45.317078%, 97.581482%)" offset="0.195312"/><stop stop-opacity="1" stop-color="rgb(6.724548%, 45.53833%, 97.7005%)" offset="0.199219"/><stop stop-opacity="1" stop-color="rgb(6.373596%, 45.761108%, 97.821045%)" offset="0.203125"/><stop stop-opacity="1" stop-color="rgb(6.022644%, 45.982361%, 97.940063%)" offset="0.207031"/><stop stop-opacity="1" stop-color="rgb(5.673218%, 46.203613%, 98.060608%)" offset="0.210937"/><stop stop-opacity="1" stop-color="rgb(5.322266%, 46.424866%, 98.179626%)" offset="0.214844"/><stop stop-opacity="1" stop-color="rgb(4.972839%, 46.647644%, 98.300171%)" offset="0.21875"/><stop stop-opacity="1" stop-color="rgb(4.621887%, 46.868896%, 98.419189%)" offset="0.222656"/><stop stop-opacity="1" stop-color="rgb(4.272461%, 47.091675%, 98.539734%)" offset="0.226562"/><stop stop-opacity="1" stop-color="rgb(3.921509%, 47.312927%, 98.658752%)" offset="0.230469"/><stop stop-opacity="1" stop-color="rgb(3.572083%, 47.535706%, 98.779297%)" offset="0.234375"/><stop stop-opacity="1" stop-color="rgb(3.22113%, 47.756958%, 98.898315%)" offset="0.238281"/><stop stop-opacity="1" stop-color="rgb(2.871704%, 47.979736%, 99.017334%)" offset="0.242188"/><stop stop-opacity="1" stop-color="rgb(2.520752%, 48.200989%, 99.136353%)" offset="0.246094"/><stop stop-opacity="1" stop-color="rgb(2.171326%, 48.423767%, 99.256897%)" offset="0.25"/><stop stop-opacity="1" stop-color="rgb(1.820374%, 48.64502%, 99.375916%)" offset="0.253906"/><stop stop-opacity="1" stop-color="rgb(1.470947%, 48.866272%, 99.49646%)" offset="0.257812"/><stop stop-opacity="1" stop-color="rgb(1.119995%, 49.087524%, 99.615479%)" offset="0.261719"/><stop stop-opacity="1" stop-color="rgb(0.770569%, 49.310303%, 99.736023%)" offset="0.265625"/><stop stop-opacity="1" stop-color="rgb(0.419617%, 49.531555%, 99.855042%)" offset="0.269531"/><stop stop-opacity="1" stop-color="rgb(0.0701904%, 49.754333%, 99.975586%)" offset="0.273438"/><stop stop-opacity="1" stop-color="rgb(0.335693%, 49.586487%, 99.884033%)" offset="0.277344"/><stop stop-opacity="1" stop-color="rgb(0.601196%, 49.41864%, 99.794006%)" offset="0.28125"/><stop stop-opacity="1" stop-color="rgb(0.935364%, 49.206543%, 99.679565%)" offset="0.285156"/><stop stop-opacity="1" stop-color="rgb(1.269531%, 48.994446%, 99.565125%)" offset="0.289062"/><stop stop-opacity="1" stop-color="rgb(1.603699%, 48.782349%, 99.450684%)" offset="0.292969"/><stop stop-opacity="1" stop-color="rgb(1.937866%, 48.571777%, 99.336243%)" offset="0.296875"/><stop stop-opacity="1" stop-color="rgb(2.272034%, 48.35968%, 99.221802%)" offset="0.300781"/><stop stop-opacity="1" stop-color="rgb(2.606201%, 48.147583%, 99.108887%)" offset="0.304688"/><stop stop-opacity="1" stop-color="rgb(2.940369%, 47.935486%, 98.994446%)" offset="0.308594"/><stop stop-opacity="1" stop-color="rgb(3.274536%, 47.723389%, 98.880005%)" offset="0.3125"/><stop stop-opacity="1" stop-color="rgb(3.608704%, 47.511292%, 98.765564%)" offset="0.316406"/><stop stop-opacity="1" stop-color="rgb(3.944397%, 47.30072%, 98.651123%)" offset="0.320312"/><stop stop-opacity="1" stop-color="rgb(4.278564%, 47.088623%, 98.536682%)" offset="0.324219"/><stop stop-opacity="1" stop-color="rgb(4.612732%, 46.876526%, 98.423767%)" offset="0.328125"/><stop stop-opacity="1" stop-color="rgb(4.946899%, 46.664429%, 98.309326%)" offset="0.332031"/><stop stop-opacity="1" stop-color="rgb(5.281067%, 46.452332%, 98.194885%)" offset="0.335938"/><stop stop-opacity="1" stop-color="rgb(5.615234%, 46.240234%, 98.080444%)" offset="0.339844"/><stop stop-opacity="1" stop-color="rgb(5.949402%, 46.029663%, 97.966003%)" offset="0.34375"/><stop stop-opacity="1" stop-color="rgb(6.283569%, 45.817566%, 97.851562%)" offset="0.347656"/><stop stop-opacity="1" stop-color="rgb(6.617737%, 45.605469%, 97.738647%)" offset="0.351562"/><stop stop-opacity="1" stop-color="rgb(6.951904%, 45.393372%, 97.624207%)" offset="0.355469"/><stop stop-opacity="1" stop-color="rgb(7.287598%, 45.1828%, 97.509766%)" offset="0.359375"/><stop stop-opacity="1" stop-color="rgb(7.621765%, 44.970703%, 97.395325%)" offset="0.363281"/><stop stop-opacity="1" stop-color="rgb(7.955933%, 44.758606%, 97.280884%)" offset="0.367188"/><stop stop-opacity="1" stop-color="rgb(8.2901%, 44.546509%, 97.166443%)" offset="0.371094"/><stop stop-opacity="1" stop-color="rgb(8.624268%, 44.334412%, 97.052002%)" offset="0.375"/><stop stop-opacity="1" stop-color="rgb(8.958435%, 44.122314%, 96.937561%)" offset="0.378906"/><stop stop-opacity="1" stop-color="rgb(9.292603%, 43.911743%, 96.824646%)" offset="0.382812"/><stop stop-opacity="1" stop-color="rgb(9.62677%, 43.699646%, 96.710205%)" offset="0.386719"/><stop stop-opacity="1" stop-color="rgb(9.962463%, 43.487549%, 96.595764%)" offset="0.390625"/><stop stop-opacity="1" stop-color="rgb(10.296631%, 43.275452%, 96.481323%)" offset="0.394531"/><stop stop-opacity="1" stop-color="rgb(10.630798%, 43.063354%, 96.366882%)" offset="0.398438"/><stop stop-opacity="1" stop-color="rgb(10.964966%, 42.851257%, 96.252441%)" offset="0.402344"/><stop stop-opacity="1" stop-color="rgb(11.299133%, 42.640686%, 96.139526%)" offset="0.40625"/><stop stop-opacity="1" stop-color="rgb(11.633301%, 42.428589%, 96.025085%)" offset="0.410156"/><stop stop-opacity="1" stop-color="rgb(11.967468%, 42.216492%, 95.910645%)" offset="0.414063"/><stop stop-opacity="1" stop-color="rgb(12.301636%, 42.004395%, 95.796204%)" offset="0.417969"/><stop stop-opacity="1" stop-color="rgb(12.635803%, 41.793823%, 95.681763%)" offset="0.421875"/><stop stop-opacity="1" stop-color="rgb(12.969971%, 41.581726%, 95.567322%)" offset="0.425781"/><stop stop-opacity="1" stop-color="rgb(13.305664%, 41.369629%, 95.454407%)" offset="0.429688"/><stop stop-opacity="1" stop-color="rgb(13.639832%, 41.157532%, 95.339966%)" offset="0.433594"/><stop stop-opacity="1" stop-color="rgb(13.973999%, 40.945435%, 95.225525%)" offset="0.4375"/><stop stop-opacity="1" stop-color="rgb(14.308167%, 40.733337%, 95.111084%)" offset="0.441406"/><stop stop-opacity="1" stop-color="rgb(14.642334%, 40.522766%, 94.996643%)" offset="0.445313"/><stop stop-opacity="1" stop-color="rgb(14.976501%, 40.310669%, 94.882202%)" offset="0.449219"/><stop stop-opacity="1" stop-color="rgb(15.310669%, 40.098572%, 94.767761%)" offset="0.453125"/><stop stop-opacity="1" stop-color="rgb(15.644836%, 39.886475%, 94.65332%)" offset="0.457031"/><stop stop-opacity="1" stop-color="rgb(15.979004%, 39.674377%, 94.540405%)" offset="0.460938"/><stop stop-opacity="1" stop-color="rgb(15.736389%, 39.828491%, 94.622803%)" offset="0.464844"/><stop stop-opacity="1" stop-color="rgb(15.4953%, 39.982605%, 94.7052%)" offset="0.46875"/><stop stop-opacity="1" stop-color="rgb(15.127563%, 40.214539%, 94.830322%)" offset="0.472656"/><stop stop-opacity="1" stop-color="rgb(14.759827%, 40.447998%, 94.95697%)" offset="0.476563"/><stop stop-opacity="1" stop-color="rgb(14.39209%, 40.679932%, 95.082092%)" offset="0.480469"/><stop stop-opacity="1" stop-color="rgb(14.024353%, 40.913391%, 95.20874%)" offset="0.484375"/><stop stop-opacity="1" stop-color="rgb(13.656616%, 41.146851%, 95.333862%)" offset="0.488281"/><stop stop-opacity="1" stop-color="rgb(13.288879%, 41.38031%, 95.458984%)" offset="0.492187"/><stop stop-opacity="1" stop-color="rgb(12.921143%, 41.612244%, 95.584106%)" offset="0.496094"/><stop stop-opacity="1" stop-color="rgb(12.553406%, 41.845703%, 95.710754%)" offset="0.5"/><stop stop-opacity="1" stop-color="rgb(12.185669%, 42.077637%, 95.835876%)" offset="0.503906"/><stop stop-opacity="1" stop-color="rgb(11.817932%, 42.311096%, 95.962524%)" offset="0.507812"/><stop stop-opacity="1" stop-color="rgb(11.450195%, 42.544556%, 96.087646%)" offset="0.511719"/><stop stop-opacity="1" stop-color="rgb(11.082458%, 42.778015%, 96.212769%)" offset="0.515625"/><stop stop-opacity="1" stop-color="rgb(10.714722%, 43.009949%, 96.337891%)" offset="0.519531"/><stop stop-opacity="1" stop-color="rgb(10.346985%, 43.243408%, 96.464539%)" offset="0.523438"/><stop stop-opacity="1" stop-color="rgb(9.979248%, 43.476868%, 96.589661%)" offset="0.527344"/><stop stop-opacity="1" stop-color="rgb(9.611511%, 43.710327%, 96.716309%)" offset="0.53125"/><stop stop-opacity="1" stop-color="rgb(9.243774%, 43.942261%, 96.841431%)" offset="0.535156"/><stop stop-opacity="1" stop-color="rgb(8.876038%, 44.17572%, 96.966553%)" offset="0.539062"/><stop stop-opacity="1" stop-color="rgb(8.508301%, 44.407654%, 97.091675%)" offset="0.542969"/><stop stop-opacity="1" stop-color="rgb(8.140564%, 44.641113%, 97.218323%)" offset="0.546875"/><stop stop-opacity="1" stop-color="rgb(7.772827%, 44.874573%, 97.343445%)" offset="0.550781"/><stop stop-opacity="1" stop-color="rgb(7.40509%, 45.108032%, 97.470093%)" offset="0.554688"/><stop stop-opacity="1" stop-color="rgb(7.037354%, 45.339966%, 97.595215%)" offset="0.558594"/><stop stop-opacity="1" stop-color="rgb(6.669617%, 45.573425%, 97.720337%)" offset="0.5625"/><stop stop-opacity="1" stop-color="rgb(6.30188%, 45.806885%, 97.845459%)" offset="0.566406"/><stop stop-opacity="1" stop-color="rgb(5.934143%, 46.040344%, 97.972107%)" offset="0.570312"/><stop stop-opacity="1" stop-color="rgb(5.566406%, 46.272278%, 98.097229%)" offset="0.574219"/><stop stop-opacity="1" stop-color="rgb(5.198669%, 46.505737%, 98.223877%)" offset="0.578125"/><stop stop-opacity="1" stop-color="rgb(4.830933%, 46.737671%, 98.348999%)" offset="0.582031"/><stop stop-opacity="1" stop-color="rgb(4.463196%, 46.97113%, 98.474121%)" offset="0.585938"/><stop stop-opacity="1" stop-color="rgb(4.093933%, 47.20459%, 98.599243%)" offset="0.589844"/><stop stop-opacity="1" stop-color="rgb(3.726196%, 47.438049%, 98.725891%)" offset="0.59375"/><stop stop-opacity="1" stop-color="rgb(3.358459%, 47.669983%, 98.851013%)" offset="0.597656"/><stop stop-opacity="1" stop-color="rgb(2.990723%, 47.903442%, 98.977661%)" offset="0.601562"/><stop stop-opacity="1" stop-color="rgb(2.622986%, 48.135376%, 99.102783%)" offset="0.605469"/><stop stop-opacity="1" stop-color="rgb(2.255249%, 48.368835%, 99.227905%)" offset="0.609375"/><stop stop-opacity="1" stop-color="rgb(1.887512%, 48.602295%, 99.353027%)" offset="0.613281"/><stop stop-opacity="1" stop-color="rgb(1.519775%, 48.835754%, 99.479675%)" offset="0.617188"/><stop stop-opacity="1" stop-color="rgb(1.152039%, 49.067688%, 99.604797%)" offset="0.621094"/><stop stop-opacity="1" stop-color="rgb(0.784302%, 49.301147%, 99.731445%)" offset="0.625"/><stop stop-opacity="1" stop-color="rgb(0.416565%, 49.534607%, 99.856567%)" offset="0.628906"/><stop stop-opacity="1" stop-color="rgb(0.0488281%, 49.768066%, 99.981689%)" offset="0.632812"/><stop stop-opacity="1" stop-color="rgb(0.427246%, 49.528503%, 99.85199%)" offset="0.636719"/><stop stop-opacity="1" stop-color="rgb(0.805664%, 49.28894%, 99.723816%)" offset="0.640625"/><stop stop-opacity="1" stop-color="rgb(1.237488%, 49.014282%, 99.575806%)" offset="0.644531"/><stop stop-opacity="1" stop-color="rgb(1.670837%, 48.739624%, 99.427795%)" offset="0.648438"/><stop stop-opacity="1" stop-color="rgb(2.102661%, 48.464966%, 99.279785%)" offset="0.652344"/><stop stop-opacity="1" stop-color="rgb(2.536011%, 48.191833%, 99.133301%)" offset="0.65625"/><stop stop-opacity="1" stop-color="rgb(2.967834%, 47.917175%, 98.985291%)" offset="0.660156"/><stop stop-opacity="1" stop-color="rgb(3.401184%, 47.644043%, 98.83728%)" offset="0.664062"/><stop stop-opacity="1" stop-color="rgb(3.833008%, 47.369385%, 98.68927%)" offset="0.667969"/><stop stop-opacity="1" stop-color="rgb(4.266357%, 47.094727%, 98.54126%)" offset="0.671875"/><stop stop-opacity="1" stop-color="rgb(4.698181%, 46.820068%, 98.39325%)" offset="0.675781"/><stop stop-opacity="1" stop-color="rgb(5.131531%, 46.546936%, 98.245239%)" offset="0.679688"/><stop stop-opacity="1" stop-color="rgb(5.56488%, 46.272278%, 98.097229%)" offset="0.683594"/><stop stop-opacity="1" stop-color="rgb(5.99823%, 45.999146%, 97.950745%)" offset="0.6875"/><stop stop-opacity="1" stop-color="rgb(6.430054%, 45.724487%, 97.802734%)" offset="0.691406"/><stop stop-opacity="1" stop-color="rgb(6.863403%, 45.451355%, 97.654724%)" offset="0.695312"/><stop stop-opacity="1" stop-color="rgb(7.295227%, 45.176697%, 97.506714%)" offset="0.699219"/><stop stop-opacity="1" stop-color="rgb(7.728577%, 44.902039%, 97.358704%)" offset="0.703125"/><stop stop-opacity="1" stop-color="rgb(8.1604%, 44.62738%, 97.210693%)" offset="0.707031"/><stop stop-opacity="1" stop-color="rgb(8.59375%, 44.354248%, 97.062683%)" offset="0.710938"/><stop stop-opacity="1" stop-color="rgb(9.025574%, 44.07959%, 96.914673%)" offset="0.714844"/><stop stop-opacity="1" stop-color="rgb(9.458923%, 43.806458%, 96.768188%)" offset="0.71875"/><stop stop-opacity="1" stop-color="rgb(9.890747%, 43.531799%, 96.620178%)" offset="0.722656"/><stop stop-opacity="1" stop-color="rgb(10.324097%, 43.258667%, 96.472168%)" offset="0.726562"/><stop stop-opacity="1" stop-color="rgb(10.75592%, 42.984009%, 96.324158%)" offset="0.730469"/><stop stop-opacity="1" stop-color="rgb(11.18927%, 42.709351%, 96.176147%)" offset="0.734375"/><stop stop-opacity="1" stop-color="rgb(11.621094%, 42.434692%, 96.028137%)" offset="0.738281"/><stop stop-opacity="1" stop-color="rgb(12.054443%, 42.16156%, 95.880127%)" offset="0.742188"/><stop stop-opacity="1" stop-color="rgb(12.486267%, 41.886902%, 95.732117%)" offset="0.746094"/><stop stop-opacity="1" stop-color="rgb(12.919617%, 41.61377%, 95.585632%)" offset="0.75"/><stop stop-opacity="1" stop-color="rgb(13.35144%, 41.339111%, 95.437622%)" offset="0.753906"/><stop stop-opacity="1" stop-color="rgb(13.78479%, 41.064453%, 95.289612%)" offset="0.757812"/><stop stop-opacity="1" stop-color="rgb(14.21814%, 40.789795%, 95.141602%)" offset="0.761719"/><stop stop-opacity="1" stop-color="rgb(14.651489%, 40.516663%, 94.993591%)" offset="0.765625"/><stop stop-opacity="1" stop-color="rgb(15.083313%, 40.242004%, 94.845581%)" offset="0.769531"/><stop stop-opacity="1" stop-color="rgb(15.516663%, 39.968872%, 94.699097%)" offset="0.773437"/><stop stop-opacity="1" stop-color="rgb(15.687561%, 39.859009%, 94.639587%)" offset="0.777344"/><stop stop-opacity="1" stop-color="rgb(15.859985%, 39.750671%, 94.581604%)" offset="0.78125"/><stop stop-opacity="1" stop-color="rgb(15.492249%, 39.984131%, 94.706726%)" offset="0.785156"/><stop stop-opacity="1" stop-color="rgb(15.124512%, 40.21759%, 94.831848%)" offset="0.789062"/><stop stop-opacity="1" stop-color="rgb(14.756775%, 40.449524%, 94.95697%)" offset="0.792969"/><stop stop-opacity="1" stop-color="rgb(14.389038%, 40.682983%, 95.083618%)" offset="0.796875"/><stop stop-opacity="1" stop-color="rgb(14.021301%, 40.916443%, 95.20874%)" offset="0.800781"/><stop stop-opacity="1" stop-color="rgb(13.653564%, 41.149902%, 95.335388%)" offset="0.804687"/><stop stop-opacity="1" stop-color="rgb(13.284302%, 41.381836%, 95.46051%)" offset="0.808594"/><stop stop-opacity="1" stop-color="rgb(12.916565%, 41.615295%, 95.585632%)" offset="0.8125"/><stop stop-opacity="1" stop-color="rgb(12.548828%, 41.847229%, 95.710754%)" offset="0.816406"/><stop stop-opacity="1" stop-color="rgb(12.181091%, 42.080688%, 95.837402%)" offset="0.820312"/><stop stop-opacity="1" stop-color="rgb(11.813354%, 42.314148%, 95.962524%)" offset="0.824219"/><stop stop-opacity="1" stop-color="rgb(11.445618%, 42.547607%, 96.089172%)" offset="0.828125"/><stop stop-opacity="1" stop-color="rgb(11.077881%, 42.779541%, 96.214294%)" offset="0.832031"/><stop stop-opacity="1" stop-color="rgb(10.710144%, 43.013%, 96.339417%)" offset="0.835937"/><stop stop-opacity="1" stop-color="rgb(10.342407%, 43.244934%, 96.464539%)" offset="0.839844"/><stop stop-opacity="1" stop-color="rgb(9.97467%, 43.478394%, 96.591187%)" offset="0.84375"/><stop stop-opacity="1" stop-color="rgb(9.606934%, 43.711853%, 96.716309%)" offset="0.847656"/><stop stop-opacity="1" stop-color="rgb(9.239197%, 43.945312%, 96.842957%)" offset="0.851562"/><stop stop-opacity="1" stop-color="rgb(8.87146%, 44.177246%, 96.968079%)" offset="0.855469"/><stop stop-opacity="1" stop-color="rgb(8.503723%, 44.410706%, 97.093201%)" offset="0.859375"/><stop stop-opacity="1" stop-color="rgb(8.135986%, 44.644165%, 97.218323%)" offset="0.863281"/><stop stop-opacity="1" stop-color="rgb(7.76825%, 44.877625%, 97.344971%)" offset="0.867187"/><stop stop-opacity="1" stop-color="rgb(7.400513%, 45.109558%, 97.470093%)" offset="0.871094"/><stop stop-opacity="1" stop-color="rgb(7.032776%, 45.343018%, 97.596741%)" offset="0.875"/><stop stop-opacity="1" stop-color="rgb(6.665039%, 45.574951%, 97.721863%)" offset="0.878906"/><stop stop-opacity="1" stop-color="rgb(6.297302%, 45.808411%, 97.846985%)" offset="0.882812"/><stop stop-opacity="1" stop-color="rgb(5.929565%, 46.04187%, 97.972107%)" offset="0.886719"/><stop stop-opacity="1" stop-color="rgb(5.561829%, 46.27533%, 98.098755%)" offset="0.890625"/><stop stop-opacity="1" stop-color="rgb(5.194092%, 46.507263%, 98.223877%)" offset="0.894531"/><stop stop-opacity="1" stop-color="rgb(4.826355%, 46.740723%, 98.350525%)" offset="0.898437"/><stop stop-opacity="1" stop-color="rgb(4.458618%, 46.974182%, 98.475647%)" offset="0.902344"/><stop stop-opacity="1" stop-color="rgb(4.090881%, 47.207642%, 98.600769%)" offset="0.90625"/><stop stop-opacity="1" stop-color="rgb(3.723145%, 47.439575%, 98.725891%)" offset="0.910156"/><stop stop-opacity="1" stop-color="rgb(3.355408%, 47.673035%, 98.852539%)" offset="0.914062"/><stop stop-opacity="1" stop-color="rgb(2.987671%, 47.904968%, 98.977661%)" offset="0.917969"/><stop stop-opacity="1" stop-color="rgb(2.619934%, 48.138428%, 99.104309%)" offset="0.921875"/><stop stop-opacity="1" stop-color="rgb(2.252197%, 48.371887%, 99.229431%)" offset="0.925781"/><stop stop-opacity="1" stop-color="rgb(1.88446%, 48.605347%, 99.354553%)" offset="0.929687"/><stop stop-opacity="1" stop-color="rgb(1.516724%, 48.83728%, 99.479675%)" offset="0.933594"/><stop stop-opacity="1" stop-color="rgb(1.148987%, 49.07074%, 99.606323%)" offset="0.9375"/><stop stop-opacity="1" stop-color="rgb(0.78125%, 49.302673%, 99.731445%)" offset="0.941406"/><stop stop-opacity="1" stop-color="rgb(0.413513%, 49.536133%, 99.858093%)" offset="0.945312"/><stop stop-opacity="1" stop-color="rgb(0.205994%, 49.667358%, 99.928284%)" offset="0.949219"/><stop stop-opacity="1" stop-color="rgb(0%, 49.798584%, 100%)" offset="0.953125"/><stop stop-opacity="1" stop-color="rgb(0%, 49.798584%, 100%)" offset="0.96875"/><stop stop-opacity="1" stop-color="rgb(0%, 49.798584%, 100%)" offset="1"/></linearGradient></defs><g clip-path="url(#3212c9acab)"><g clip-path="url(#72cabe7b85)"><g clip-path="url(#8c2833b4df)"><g clip-path="url(#fcf1b5e0eb)"><path fill="url(#fb5ae6b23c)" d="M 25.941406 -2.375 L -2.316406 11.992188 L 12.21875 40.585938 L 40.480469 26.214844 Z M 25.941406 -2.375 " fill-rule="nonzero"/></g></g></g></g><g fill="#ffffff" fill-opacity="1"><g transform="translate(11.269559, 13.916323)"><g><path d="M 0.503906 -0.578125 L -0.15625 -1.15625 L -0.285156 -1.007812 L 0.128906 -0.648438 L -0.484375 -0.78125 L -0.609375 -0.636719 L 0.0507812 -0.0585938 L 0.179688 -0.203125 L -0.234375 -0.5625 L 0.375 -0.433594 Z M 0.503906 -0.578125 "/></g></g></g><g fill="#ffffff" fill-opacity="1"><g transform="translate(12.511944, 12.626034)"><g><path d="M -0.0195312 -0.878906 C 0.0507812 -0.929688 0.140625 -0.953125 0.230469 -0.90625 L 0.402344 -1.035156 C 0.242188 -1.144531 0.0273438 -1.140625 -0.128906 -1.023438 C -0.324219 -0.871094 -0.363281 -0.585938 -0.214844 -0.390625 C -0.0625 -0.191406 0.222656 -0.152344 0.417969 -0.300781 C 0.617188 -0.453125 0.65625 -0.734375 0.503906 -0.933594 L 0.488281 -0.957031 L 0.144531 -0.695312 L 0.230469 -0.582031 L 0.410156 -0.714844 C 0.453125 -0.582031 0.382812 -0.492188 0.3125 -0.441406 C 0.203125 -0.359375 0.0351562 -0.386719 -0.0546875 -0.503906 C -0.144531 -0.625 -0.128906 -0.792969 -0.0195312 -0.878906 Z M -0.0195312 -0.878906 "/></g></g></g><g fill="#ffffff" fill-opacity="1"><g transform="translate(14.133674, 11.528164)"><g><path d="M 0.15625 -1.046875 L 0.375 -0.589844 C 0.425781 -0.480469 0.421875 -0.402344 0.300781 -0.34375 C 0.183594 -0.289062 0.121094 -0.332031 0.0664062 -0.441406 L -0.148438 -0.902344 L -0.324219 -0.816406 L -0.09375 -0.335938 C 0.0078125 -0.121094 0.179688 -0.0703125 0.386719 -0.167969 C 0.59375 -0.265625 0.660156 -0.433594 0.5625 -0.644531 L 0.332031 -1.128906 Z M 0.15625 -1.046875 "/></g></g></g><g fill="#ffffff" fill-opacity="1"><g transform="translate(15.789047, 10.84328)"><g><path d="M 0.324219 -0.0820312 L 0.511719 -0.128906 L 0.410156 -0.535156 L 0.613281 -1.058594 L 0.386719 -1.003906 L 0.277344 -0.664062 L 0.0195312 -0.910156 L -0.203125 -0.855469 L 0.222656 -0.488281 Z M 0.324219 -0.0820312 "/></g></g></g><g fill="#ffffff" fill-opacity="1"><g transform="translate(17.56968, 10.49425)"><g><path d="M 0.65625 -0.03125 L 0.109375 0 L 0.0625 -0.921875 L 0.609375 -0.953125 L 0.609375 -0.796875 L 0.265625 -0.78125 L 0.28125 -0.578125 L 0.59375 -0.59375 L 0.609375 -0.4375 L 0.296875 -0.421875 L 0.296875 -0.171875 L 0.640625 -0.1875 Z M 0.546875 -1.40625 C 0.535156 -1.363281 0.519531 -1.328125 0.5 -1.296875 C 0.488281 -1.265625 0.457031 -1.25 0.40625 -1.25 C 0.382812 -1.25 0.359375 -1.25 0.328125 -1.25 C 0.304688 -1.257812 0.285156 -1.269531 0.265625 -1.28125 C 0.242188 -1.289062 0.226562 -1.296875 0.21875 -1.296875 C 0.195312 -1.296875 0.179688 -1.289062 0.171875 -1.28125 C 0.160156 -1.269531 0.160156 -1.253906 0.171875 -1.234375 L 0.09375 -1.234375 C 0.0820312 -1.273438 0.0859375 -1.3125 0.109375 -1.34375 C 0.140625 -1.375 0.175781 -1.390625 0.21875 -1.390625 C 0.25 -1.390625 0.273438 -1.382812 0.296875 -1.375 C 0.316406 -1.363281 0.332031 -1.351562 0.34375 -1.34375 C 0.363281 -1.34375 0.382812 -1.34375 0.40625 -1.34375 C 0.414062 -1.34375 0.425781 -1.347656 0.4375 -1.359375 C 0.445312 -1.367188 0.453125 -1.382812 0.453125 -1.40625 Z M 0.40625 -1.21875 C 0.425781 -1.1875 0.445312 -1.15625 0.46875 -1.125 C 0.5 -1.101562 0.53125 -1.078125 0.5625 -1.046875 L 0.5625 -1.03125 L 0.46875 -1.03125 C 0.4375 -1.050781 0.410156 -1.066406 0.390625 -1.078125 C 0.367188 -1.097656 0.347656 -1.109375 0.328125 -1.109375 C 0.296875 -1.097656 0.269531 -1.082031 0.25 -1.0625 C 0.226562 -1.050781 0.203125 -1.035156 0.171875 -1.015625 L 0.078125 -1.015625 L 0.078125 -1.03125 C 0.109375 -1.0625 0.132812 -1.085938 0.15625 -1.109375 C 0.1875 -1.140625 0.210938 -1.171875 0.234375 -1.203125 Z M 0.40625 -1.21875 "/></g></g></g><g fill="#ffffff" fill-opacity="1"><g transform="translate(19.245696, 10.484625)"><g><path d="M 0.761719 0.101562 L 0.878906 -0.769531 L 0.683594 -0.792969 L 0.613281 -0.25 L 0.386719 -0.835938 L 0.195312 -0.859375 L 0.078125 0.0117188 L 0.269531 0.0351562 L 0.339844 -0.507812 L 0.570312 0.078125 Z M 0.761719 0.101562 "/></g></g></g><g fill="#ffffff" fill-opacity="1"><g transform="translate(21.017819, 10.826676)"><g/></g></g><g fill="#ffffff" fill-opacity="1"><g transform="translate(22.223481, 11.254385)"><g><path d="M 1.035156 0.550781 L 1.296875 -0.304688 L 1.09375 -0.414062 L 0.644531 0.046875 L 0.773438 -0.585938 L 0.570312 -0.691406 L 0.00390625 0.00390625 L 0.195312 0.101562 L 0.570312 -0.382812 L 0.4375 0.230469 L 0.605469 0.320312 L 1.039062 -0.132812 L 0.847656 0.449219 Z M 1.035156 0.550781 "/></g></g></g><g fill="#ffffff" fill-opacity="1"><g transform="translate(24.040599, 12.366131)"><g><path d="M 0.210938 0.167969 L 0.761719 -0.515625 L 0.609375 -0.636719 L 0.0585938 0.046875 Z M 0.210938 0.167969 "/></g></g></g><g fill="#ffffff" fill-opacity="1"><g transform="translate(25.023355, 13.233231)"><g><path d="M 0.507812 0.574219 L 1.167969 -0.0078125 L 1.039062 -0.152344 L 0.628906 0.210938 L 0.835938 -0.378906 L 0.710938 -0.523438 L 0.0507812 0.0585938 L 0.179688 0.203125 L 0.589844 -0.160156 L 0.378906 0.429688 Z M 0.507812 0.574219 "/></g></g></g><g fill="#ffffff" fill-opacity="1"><g transform="translate(26.140482, 14.637557)"><g><path d="M 1.042969 0.0429688 L 0.738281 0.21875 L 0.59375 -0.03125 L 0.894531 -0.207031 L 0.796875 -0.375 L 0.0390625 0.0664062 L 0.136719 0.234375 L 0.441406 0.0585938 L 0.585938 0.308594 L 0.28125 0.484375 L 0.386719 0.664062 L 1.144531 0.21875 Z M 1.042969 0.0429688 "/></g></g></g><g fill="#ffffff" fill-opacity="1"><g transform="translate(26.95895, 16.246124)"><g/></g></g><g fill="#ffffff" fill-opacity="1"><g transform="translate(27.356503, 17.466238)"><g><path d="M 0.421875 0.644531 C 0.339844 0.625 0.273438 0.546875 0.257812 0.457031 C 0.230469 0.320312 0.328125 0.183594 0.476562 0.15625 C 0.621094 0.128906 0.761719 0.21875 0.789062 0.359375 C 0.804688 0.445312 0.773438 0.542969 0.703125 0.59375 L 0.742188 0.804688 C 0.90625 0.710938 1.003906 0.523438 0.96875 0.324219 C 0.921875 0.0820312 0.683594 -0.0820312 0.441406 -0.0351562 C 0.195312 0.0078125 0.03125 0.246094 0.078125 0.492188 C 0.113281 0.6875 0.273438 0.832031 0.464844 0.855469 Z M 0.421875 0.644531 "/></g></g></g><g fill="#ffffff" fill-opacity="1"><g transform="translate(27.604774, 19.356549)"><g><path d="M 0.867188 0.578125 L 0.519531 0.570312 L 0.523438 0.28125 L 0.875 0.289062 L 0.875 0.09375 L 0 0.078125 L -0.00390625 0.269531 L 0.347656 0.277344 L 0.34375 0.566406 L -0.0117188 0.558594 L -0.015625 0.765625 L 0.863281 0.78125 Z M 0.867188 0.578125 "/></g></g></g><g fill="#ffffff" fill-opacity="1"><g transform="translate(27.480198, 21.145778)"><g><path d="M 1.097656 0.773438 L 1.128906 0.625 L 0.902344 0.40625 L 0.871094 0.546875 L 1.039062 0.683594 L 0.828125 0.738281 L 0.796875 0.878906 Z M 0.207031 0.613281 L 0.257812 0.398438 L 0.539062 0.574219 Z M -0.191406 0.863281 L 0.746094 0.703125 L 0.78125 0.542969 L 0 0.0078125 L -0.046875 0.210938 L 0.113281 0.308594 L 0.0429688 0.636719 L -0.144531 0.660156 Z M -0.191406 0.863281 "/></g></g></g><g fill="#ffffff" fill-opacity="1"><g transform="translate(26.990789, 22.918163)"><g><path d="M 0.566406 0.894531 L 0.101562 0.691406 C -0.0117188 0.640625 -0.0585938 0.578125 -0.00390625 0.457031 C 0.046875 0.335938 0.125 0.332031 0.238281 0.378906 L 0.703125 0.585938 L 0.78125 0.40625 L 0.289062 0.191406 C 0.0742188 0.0976562 -0.0898438 0.171875 -0.183594 0.378906 C -0.273438 0.589844 -0.21875 0.761719 -0.00390625 0.855469 L 0.488281 1.070312 Z M 0.566406 0.894531 "/></g></g></g><g fill="#ffffff" fill-opacity="1"><g transform="translate(14.454875, 19.885221)"><g><path d="M 4.433594 -1.027344 C 4.433594 -0.253906 4.28125 -0.0507812 3.964844 -0.0664062 L 3.964844 0 L 5.589844 0 L 5.589844 -0.0664062 C 5.277344 -0.0507812 5.125 -0.253906 5.125 -1.027344 L 5.125 -3.945312 C 5.125 -4.714844 5.277344 -4.925781 5.589844 -4.914062 L 5.589844 -4.976562 L 4.433594 -4.976562 L 2.75 -0.183594 L 1.085938 -4.976562 L 0 -4.976562 L 0 -4.914062 C 0.3125 -4.925781 0.464844 -4.714844 0.464844 -3.945312 L 0.464844 -1.027344 C 0.464844 -0.253906 0.3125 -0.0507812 0 -0.0664062 L 0 0 L 1.0625 0 L 1.0625 -0.0664062 C 0.75 -0.0507812 0.597656 -0.253906 0.597656 -1.027344 L 0.597656 -4.265625 L 2.082031 0 L 2.824219 0 L 4.433594 -4.585938 Z M 4.433594 -1.027344 "/></g></g></g><g fill="#ffffff" fill-opacity="1"><g transform="translate(17.49783, 22.920631)"><g><path d="M 4.367188 -4.308594 C 3.878906 -4.730469 3.1875 -4.976562 2.511719 -4.976562 C 1.128906 -4.976562 0 -3.886719 0 -2.488281 C 0 -1.0625 1.085938 0 2.511719 0 C 3.320312 0 4.089844 -0.371094 4.519531 -1.144531 L 4.46875 -1.179688 C 4.191406 -0.792969 3.8125 -0.546875 3.382812 -0.445312 C 2.292969 -0.183594 1.1875 -0.828125 0.808594 -1.878906 C 0.457031 -2.847656 0.582031 -4.300781 1.6875 -4.703125 C 2.453125 -4.976562 3.347656 -4.730469 4.097656 -3.601562 Z M 4.367188 -4.308594 "/></g></g></g></svg>