<svg xmlns="http://www.w3.org/2000/svg" xmlns:xlink="http://www.w3.org/1999/xlink" width="50" zoomAndPan="magnify" viewBox="0 0 37.5 37.499999" height="50" preserveAspectRatio="xMidYMid meet" version="1.0"><defs><g/><clipPath id="2666ffa8a6"><path d="M 10.109375 3.269531 L 27.335938 3.269531 L 27.335938 23.054688 L 10.109375 23.054688 Z M 10.109375 3.269531 " clip-rule="nonzero"/></clipPath></defs><g fill="#1d6cf5" fill-opacity="1"><g transform="translate(11.490399, 32.246453)"><g><path d="M 1.546875 0 L 0.640625 0 C 0.566406 0 0.507812 -0.015625 0.46875 -0.046875 C 0.4375 -0.0859375 0.421875 -0.144531 0.421875 -0.21875 L 0.421875 -4.171875 C 0.421875 -4.242188 0.4375 -4.296875 0.46875 -4.328125 C 0.507812 -4.367188 0.566406 -4.390625 0.640625 -4.390625 L 1.28125 -4.390625 C 1.351562 -4.390625 1.414062 -4.375 1.46875 -4.34375 C 1.519531 -4.320312 1.578125 -4.28125 1.640625 -4.21875 L 2.8125 -2.875 L 2.8125 -4.171875 C 2.8125 -4.242188 2.828125 -4.296875 2.859375 -4.328125 C 2.898438 -4.367188 2.957031 -4.390625 3.03125 -4.390625 L 3.953125 -4.390625 C 4.023438 -4.390625 4.078125 -4.367188 4.109375 -4.328125 C 4.148438 -4.296875 4.171875 -4.242188 4.171875 -4.171875 L 4.171875 -0.21875 C 4.171875 -0.144531 4.148438 -0.0859375 4.109375 -0.046875 C 4.078125 -0.015625 4.023438 0 3.953125 0 L 3.03125 0 C 2.957031 0 2.898438 -0.015625 2.859375 -0.046875 C 2.828125 -0.0859375 2.8125 -0.144531 2.8125 -0.21875 L 2.8125 -0.96875 L 1.765625 -2.234375 L 1.765625 -0.21875 C 1.765625 -0.144531 1.75 -0.0859375 1.71875 -0.046875 C 1.6875 -0.015625 1.628906 0 1.546875 0 Z M 1.546875 0 "/></g></g></g><g fill="#1d6cf5" fill-opacity="1"><g transform="translate(16.5411, 32.246453)"><g><path d="M 1.546875 0 L 0.640625 0 C 0.566406 0 0.507812 -0.015625 0.46875 -0.046875 C 0.4375 -0.0859375 0.421875 -0.144531 0.421875 -0.21875 L 0.421875 -4.171875 C 0.421875 -4.242188 0.4375 -4.296875 0.46875 -4.328125 C 0.507812 -4.367188 0.566406 -4.390625 0.640625 -4.390625 L 1.625 -4.390625 C 1.6875 -4.390625 1.738281 -4.375 1.78125 -4.34375 C 1.820312 -4.3125 1.863281 -4.265625 1.90625 -4.203125 L 2.453125 -3.21875 C 2.472656 -3.175781 2.488281 -3.144531 2.5 -3.125 C 2.507812 -3.113281 2.53125 -3.109375 2.5625 -3.109375 L 2.609375 -3.109375 C 2.640625 -3.109375 2.660156 -3.113281 2.671875 -3.125 C 2.679688 -3.144531 2.695312 -3.175781 2.71875 -3.21875 L 3.265625 -4.203125 C 3.304688 -4.265625 3.347656 -4.3125 3.390625 -4.34375 C 3.429688 -4.375 3.484375 -4.390625 3.546875 -4.390625 L 4.53125 -4.390625 C 4.613281 -4.390625 4.671875 -4.367188 4.703125 -4.328125 C 4.734375 -4.296875 4.75 -4.242188 4.75 -4.171875 L 4.75 -0.21875 C 4.75 -0.144531 4.734375 -0.0859375 4.703125 -0.046875 C 4.671875 -0.015625 4.613281 0 4.53125 0 L 3.59375 0 C 3.519531 0 3.460938 -0.015625 3.421875 -0.046875 C 3.390625 -0.0859375 3.375 -0.144531 3.375 -0.21875 L 3.375 -2.359375 L 3.015625 -1.703125 C 2.984375 -1.628906 2.941406 -1.578125 2.890625 -1.546875 C 2.835938 -1.515625 2.769531 -1.5 2.6875 -1.5 L 2.453125 -1.5 C 2.367188 -1.5 2.300781 -1.515625 2.25 -1.546875 C 2.207031 -1.578125 2.164062 -1.628906 2.125 -1.703125 L 1.765625 -2.359375 L 1.765625 -0.21875 C 1.765625 -0.144531 1.742188 -0.0859375 1.703125 -0.046875 C 1.671875 -0.015625 1.617188 0 1.546875 0 Z M 1.546875 0 "/></g></g></g><g fill="#1d6cf5" fill-opacity="1"><g transform="translate(22.177378, 32.246453)"><g><path d="M 3.34375 0 L 1.859375 0 C 1.347656 0 0.96875 -0.0976562 0.71875 -0.296875 C 0.476562 -0.503906 0.359375 -0.820312 0.359375 -1.25 L 0.359375 -3.140625 C 0.359375 -3.554688 0.476562 -3.867188 0.71875 -4.078125 C 0.96875 -4.285156 1.347656 -4.390625 1.859375 -4.390625 L 3.34375 -4.390625 C 3.414062 -4.390625 3.46875 -4.367188 3.5 -4.328125 C 3.539062 -4.296875 3.5625 -4.242188 3.5625 -4.171875 L 3.5625 -3.4375 C 3.5625 -3.351562 3.539062 -3.296875 3.5 -3.265625 C 3.46875 -3.234375 3.414062 -3.21875 3.34375 -3.21875 L 2.109375 -3.21875 C 1.984375 -3.21875 1.890625 -3.191406 1.828125 -3.140625 C 1.773438 -3.085938 1.75 -3.007812 1.75 -2.90625 L 1.75 -1.453125 C 1.75 -1.347656 1.773438 -1.269531 1.828125 -1.21875 C 1.890625 -1.175781 1.984375 -1.15625 2.109375 -1.15625 L 3.34375 -1.15625 C 3.414062 -1.15625 3.46875 -1.140625 3.5 -1.109375 C 3.539062 -1.078125 3.5625 -1.019531 3.5625 -0.9375 L 3.5625 -0.21875 C 3.5625 -0.144531 3.539062 -0.0859375 3.5 -0.046875 C 3.46875 -0.015625 3.414062 0 3.34375 0 Z M 3.34375 0 "/></g></g></g><path fill="#1d6cf5" d="M 24.304688 9.914062 C 24.269531 9.851562 24.226562 9.789062 24.128906 9.738281 L 22.765625 8.945312 C 22.746094 8.933594 22.726562 8.925781 22.707031 8.921875 C 22.699219 8.917969 22.691406 8.917969 22.683594 8.917969 C 22.671875 8.914062 22.65625 8.914062 22.640625 8.914062 C 22.597656 8.914062 22.558594 8.925781 22.523438 8.945312 L 19.457031 10.730469 L 19.453125 10.722656 L 19.203125 10.867188 C 18.90625 11.042969 18.539062 11.042969 18.238281 10.867188 L 16.898438 10.089844 C 16.824219 10.046875 16.777344 9.964844 16.777344 9.878906 C 16.777344 9.792969 16.824219 9.710938 16.898438 9.667969 L 18.238281 8.890625 C 18.539062 8.714844 18.90625 8.714844 19.203125 8.890625 L 19.527344 9.078125 C 19.601562 9.121094 19.695312 9.121094 19.769531 9.078125 L 21.019531 8.351562 C 21.09375 8.308594 21.140625 8.226562 21.140625 8.140625 C 21.140625 8.054688 21.09375 7.972656 21.019531 7.929688 L 19.203125 6.875 C 18.90625 6.703125 18.539062 6.703125 18.238281 6.875 L 13.796875 9.457031 C 13.476562 9.644531 13.476562 10.113281 13.796875 10.300781 L 18.238281 12.878906 C 18.539062 13.054688 18.90625 13.054688 19.203125 12.878906 L 22.640625 10.886719 L 22.640625 15.429688 L 21.535156 16.074219 L 19.203125 17.433594 C 19.132812 17.476562 19.050781 17.507812 18.96875 17.53125 C 18.722656 17.597656 18.460938 17.5625 18.238281 17.433594 L 15.046875 15.578125 C 14.898438 15.492188 14.804688 15.332031 14.804688 15.15625 L 14.804688 12.507812 C 14.804688 12.421875 14.757812 12.339844 14.683594 12.296875 L 13.433594 11.570312 C 13.359375 11.527344 13.269531 11.527344 13.195312 11.570312 C 13.121094 11.613281 13.074219 11.695312 13.074219 11.78125 L 13.074219 16.164062 C 13.074219 16.335938 13.164062 16.496094 13.316406 16.585938 L 18.238281 19.445312 C 18.382812 19.53125 18.546875 19.574219 18.714844 19.574219 L 18.71875 19.574219 C 18.742188 19.574219 18.765625 19.574219 18.789062 19.570312 C 18.808594 19.570312 18.824219 19.570312 18.84375 19.570312 C 18.867188 19.566406 18.894531 19.558594 18.917969 19.554688 C 18.933594 19.550781 18.953125 19.546875 18.96875 19.542969 C 18.996094 19.539062 19.019531 19.527344 19.046875 19.519531 C 19.0625 19.511719 19.074219 19.507812 19.089844 19.503906 C 19.128906 19.488281 19.167969 19.46875 19.203125 19.445312 L 23.453125 16.976562 L 24.128906 16.59375 C 24.277344 16.507812 24.371094 16.34375 24.371094 16.171875 L 24.371094 10.160156 C 24.371094 10.070312 24.347656 9.988281 24.304688 9.914062 " fill-opacity="1" fill-rule="nonzero"/><g clip-path="url(#2666ffa8a6)"><path fill="#1d6cf5" d="M 19.191406 5.425781 C 19.050781 5.339844 18.886719 5.296875 18.722656 5.296875 C 18.558594 5.296875 18.394531 5.339844 18.253906 5.425781 L 12.316406 8.875 C 12.019531 9.046875 11.835938 9.367188 11.835938 9.710938 L 11.835938 16.609375 C 11.835938 16.957031 12.019531 17.277344 12.316406 17.449219 L 18.253906 20.898438 C 18.398438 20.980469 18.5625 21.027344 18.730469 21.027344 C 18.898438 21.027344 19.0625 20.980469 19.207031 20.898438 L 25.117188 17.464844 C 25.414062 17.292969 25.597656 16.972656 25.597656 16.625 L 25.597656 14.632812 C 25.597656 14.546875 25.644531 14.464844 25.71875 14.421875 L 26.976562 13.691406 C 27.050781 13.648438 27.140625 13.648438 27.214844 13.691406 C 27.289062 13.734375 27.335938 13.816406 27.335938 13.902344 L 27.335938 17.613281 C 27.335938 17.773438 27.296875 17.929688 27.222656 18.066406 C 27.203125 18.160156 27.105469 18.265625 26.964844 18.378906 C 26.960938 18.378906 26.957031 18.382812 26.953125 18.386719 C 26.597656 18.664062 26.011719 18.949219 25.90625 19.011719 L 19.207031 22.90625 C 19.058594 22.992188 18.886719 23.035156 18.714844 23.035156 L 18.707031 23.035156 C 18.546875 23.03125 18.390625 22.984375 18.253906 22.90625 L 10.589844 18.453125 C 10.292969 18.28125 10.109375 17.960938 10.109375 17.613281 L 10.109375 8.707031 C 10.109375 8.554688 10.128906 8.394531 10.195312 8.261719 C 10.207031 8.226562 10.296875 8.054688 10.488281 7.914062 C 10.5625 7.867188 10.6875 7.800781 10.808594 7.730469 L 18.230469 3.417969 C 18.378906 3.332031 18.550781 3.285156 18.722656 3.289062 C 18.894531 3.285156 19.066406 3.332031 19.214844 3.417969 L 26.0625 7.398438 C 26.078125 7.40625 26.089844 7.417969 26.105469 7.429688 L 26.191406 7.480469 C 26.421875 7.601562 26.789062 7.792969 26.984375 7.945312 L 27.003906 7.957031 C 27.003906 7.957031 27.007812 7.960938 27.011719 7.960938 C 27.015625 7.96875 27.023438 7.972656 27.027344 7.980469 C 27.101562 8.039062 27.164062 8.113281 27.210938 8.191406 C 27.210938 8.195312 27.210938 8.195312 27.214844 8.195312 C 27.292969 8.332031 27.335938 8.484375 27.335938 8.640625 L 27.335938 11.902344 C 27.335938 11.988281 27.289062 12.070312 27.214844 12.113281 L 25.957031 12.84375 C 25.882812 12.886719 25.789062 12.886719 25.71875 12.84375 C 25.640625 12.800781 25.597656 12.71875 25.597656 12.632812 L 25.597656 9.691406 C 25.597656 9.347656 25.414062 9.027344 25.113281 8.855469 Z M 19.191406 5.425781 " fill-opacity="1" fill-rule="nonzero"/></g></svg>