<svg xmlns="http://www.w3.org/2000/svg" xmlns:xlink="http://www.w3.org/1999/xlink" width="500" zoomAndPan="magnify" viewBox="0 0 375 374.999991" height="500" preserveAspectRatio="xMidYMid meet" version="1.0"><defs><g/><clipPath id="b5f5e1bf32"><path d="M 79 82 L 296 82 L 296 300 L 79 300 Z M 79 82 " clip-rule="nonzero"/></clipPath><clipPath id="83f4f42f95"><path d="M 233.078125 44.78125 L 332.683594 240.664062 L 142.152344 337.546875 L 42.546875 141.667969 Z M 233.078125 44.78125 " clip-rule="nonzero"/></clipPath><clipPath id="2c24b7040b"><path d="M 233.078125 44.78125 L 332.683594 240.664062 L 142.152344 337.546875 L 42.546875 141.667969 Z M 233.078125 44.78125 " clip-rule="nonzero"/></clipPath><clipPath id="54d0359464"><path d="M 267.851562 120.949219 C 227.890625 75.246094 159.375 69.597656 115.125 108.347656 C 105.566406 116.71875 97.8125 126.675781 91.890625 137.847656 L 92.171875 137.996094 L 91.890625 137.847656 C 81.742188 156.980469 77.746094 178.714844 80.324219 200.699219 C 82.960938 223.171875 92.332031 244.175781 107.429688 261.441406 C 147.359375 307.097656 215.804688 312.746094 260.007812 274.03125 C 304.257812 235.277344 307.816406 166.648438 267.851562 120.949219 Z M 103.613281 240.929688 C 105.304688 242.863281 106.78125 244.375 107.894531 245.453125 C 115.304688 252.625 125.546875 253.179688 136.390625 253.765625 C 148.914062 254.445312 163.109375 255.214844 175.320312 266.585938 C 185.660156 276.214844 195.8125 284.644531 207.289062 288.484375 C 195.652344 285.011719 185.414062 277.109375 175.339844 268.332031 C 163.191406 257.753906 149.308594 256.535156 137.058594 255.457031 C 126.066406 254.492188 115.683594 253.582031 108.179688 246.195312 C 101.488281 239.605469 95.195312 231.058594 90.386719 221.050781 C 94.726562 229.8125 99.730469 236.492188 103.613281 240.929688 Z M 98.871094 234.070312 C 100.386719 236.109375 101.855469 237.90625 103.195312 239.4375 C 105.078125 241.589844 106.71875 243.242188 107.921875 244.386719 C 115.152344 251.246094 125.203125 251.453125 135.84375 251.667969 C 148.691406 251.929688 163.253906 252.222656 175.597656 264.492188 C 185.730469 274.566406 195.132812 283.300781 206.339844 287.660156 C 195.363281 283.695312 185.578125 275.539062 175.617188 266.261719 C 163.289062 254.777344 149.007812 254.007812 136.410156 253.324219 C 125.652344 252.742188 115.492188 252.195312 108.199219 245.136719 C 106.960938 243.9375 103.199219 240.125 98.871094 234.070312 Z M 175.058594 270.40625 C 163.136719 260.71875 149.679688 259.085938 137.808594 257.648438 C 126.542969 256.285156 115.902344 254.992188 108.164062 247.25 C 102.136719 241.226562 96.449219 233.59375 91.863281 224.757812 C 95.976562 232.46875 100.488281 238.386719 103.996094 242.394531 C 105.511719 244.128906 106.839844 245.507812 107.863281 246.515625 C 115.480469 254.015625 125.945312 254.933594 137.019531 255.910156 C 149.199219 256.980469 163.003906 258.191406 175.042969 268.671875 C 185.390625 277.6875 195.914062 285.789062 207.933594 289.160156 C 195.730469 286.15625 185.113281 278.570312 175.058594 270.402344 Z M 208.328125 289.753906 C 195.636719 287.195312 184.699219 279.972656 174.777344 272.476562 C 163.132812 263.679688 150.703125 261.765625 138.679688 259.910156 C 127.097656 258.128906 116.15625 256.441406 108.140625 248.3125 C 102.128906 242.210938 96.460938 234.519531 91.878906 225.644531 C 96.128906 233.664062 100.792969 239.78125 104.347656 243.84375 C 105.695312 245.390625 106.890625 246.640625 107.835938 247.585938 C 115.691406 255.441406 126.410156 256.742188 137.753906 258.117188 C 150.140625 259.617188 162.949219 261.171875 174.765625 270.769531 C 185.015625 279.097656 195.84375 286.820312 208.332031 289.757812 Z M 104.472656 245.0625 C 105.554688 246.300781 106.667969 247.496094 107.796875 248.648438 C 115.925781 256.890625 126.945312 258.589844 138.609375 260.386719 C 150.570312 262.230469 162.945312 264.136719 174.484375 272.859375 C 183.765625 279.875 194.808594 287.234375 207.355469 290.066406 C 195.421875 287.800781 184.640625 281.660156 174.492188 274.550781 C 163.199219 266.636719 151.257812 264.414062 139.710938 262.261719 C 127.746094 260.035156 116.445312 257.933594 108.121094 249.371094 C 101.53125 242.601562 95.339844 233.941406 90.554688 223.894531 C 94.320312 231.640625 99.054688 238.871094 104.472656 245.066406 Z M 104.769531 246.457031 C 105.746094 247.574219 106.746094 248.664062 107.769531 249.710938 C 116.207031 258.386719 127.582031 260.503906 139.625 262.746094 C 151.121094 264.886719 163.003906 267.101562 174.210938 274.953125 C 183.96875 281.789062 197.074219 289.828125 211.957031 291.339844 C 212.632812 291.410156 213.3125 291.449219 213.988281 291.488281 C 199.3125 290.984375 186.335938 284.464844 174.214844 276.617188 C 163.347656 269.582031 151.960938 267.113281 140.949219 264.722656 C 128.53125 262.023438 116.800781 259.480469 108.105469 250.425781 C 101.671875 243.726562 95.617188 235.226562 90.871094 225.402344 C 94.652344 233.097656 99.371094 240.28125 104.773438 246.457031 Z M 105.984375 253.226562 C 106.523438 253.839844 107.066406 254.441406 107.613281 255.042969 C 118.855469 267.257812 133.753906 271.992188 149.527344 277 C 157.1875 279.429688 165.113281 281.945312 172.84375 285.417969 C 188.453125 292.421875 203.253906 295.097656 217.441406 293.433594 C 203.289062 295.445312 188.472656 293.289062 172.785156 286.980469 C 166.503906 284.453125 160.101562 282.335938 153.90625 280.292969 C 136.605469 274.578125 120.265625 269.179688 108.003906 255.726562 C 105.210938 252.664062 102.554688 249.316406 100.0625 245.746094 C 101.925781 248.34375 103.898438 250.84375 105.980469 253.230469 Z M 99.550781 244.003906 C 101.488281 246.738281 103.550781 249.359375 105.734375 251.855469 C 106.359375 252.574219 107 253.28125 107.644531 253.976562 C 118.050781 265.179688 131.855469 269.285156 146.472656 273.644531 C 155.242188 276.253906 164.3125 278.953125 173.117188 283.324219 C 186.332031 289.886719 198.789062 293.21875 210.792969 293.320312 C 198.714844 293.59375 186.183594 290.789062 173.074219 284.910156 C 165.308594 281.425781 157.371094 278.902344 149.695312 276.46875 C 133.996094 271.484375 119.167969 266.777344 108.027344 254.667969 C 105.03125 251.410156 102.191406 247.84375 99.550781 244.007812 Z M 104.929688 247.714844 C 105.847656 248.761719 106.78125 249.785156 107.738281 250.78125 C 116.539062 259.945312 128.34375 262.507812 140.839844 265.21875 C 151.808594 267.601562 163.148438 270.0625 173.9375 277.046875 C 188.527344 286.492188 200.394531 291.058594 212.402344 291.839844 C 198.007812 291.332031 185.28125 285.457031 173.929688 278.691406 C 163.589844 272.53125 152.839844 269.882812 142.445312 267.320312 C 129.46875 264.125 117.21875 261.105469 108.085938 251.488281 C 103.78125 246.953125 99.652344 241.613281 95.96875 235.625 C 98.660156 239.921875 101.660156 243.976562 104.929688 247.71875 Z M 105.207031 249.105469 C 106.023438 250.035156 106.859375 250.953125 107.707031 251.84375 C 116.941406 261.574219 129.269531 264.609375 142.316406 267.828125 C 152.675781 270.378906 163.386719 273.019531 173.660156 279.140625 C 187.835938 287.582031 200.058594 291.769531 212.03125 292.296875 C 197.351562 292.109375 184.484375 286.675781 173.644531 280.761719 C 163.964844 275.480469 153.960938 272.746094 144.289062 270.097656 C 130.625 266.359375 117.71875 262.828125 108.066406 252.546875 C 104.386719 248.632812 100.9375 244.242188 97.8125 239.449219 C 100.09375 242.839844 102.558594 246.074219 105.207031 249.105469 Z M 105.476562 250.480469 C 106.195312 251.304688 106.929688 252.113281 107.675781 252.910156 C 117.429688 263.300781 130.40625 266.851562 144.148438 270.609375 C 153.792969 273.25 163.761719 275.980469 173.390625 281.230469 C 183.441406 286.710938 195.21875 291.785156 208.558594 292.703125 C 197.324219 292.234375 185.671875 288.945312 173.359375 282.832031 C 164.511719 278.441406 155.421875 275.734375 146.632812 273.113281 C 132.089844 268.785156 118.355469 264.691406 108.050781 253.601562 C 104.832031 250.140625 101.800781 246.308594 99 242.179688 C 101.023438 245.074219 103.179688 247.855469 105.480469 250.480469 Z M 106.234375 254.59375 C 106.679688 255.101562 107.128906 255.605469 107.585938 256.105469 C 119.949219 269.671875 136.355469 275.09375 153.726562 280.832031 C 159.914062 282.871094 166.308594 284.984375 172.574219 287.507812 C 185.964844 292.890625 198.730469 295.265625 210.992188 294.628906 C 198.648438 295.640625 185.796875 293.789062 172.503906 289.042969 C 168.371094 287.570312 164.167969 286.175781 160.105469 284.824219 C 140.4375 278.300781 121.867188 272.136719 107.992188 256.777344 C 104.21875 252.597656 100.835938 248.15625 97.832031 243.519531 C 100.394531 247.40625 103.199219 251.113281 106.238281 254.589844 Z M 106.476562 255.960938 C 106.832031 256.367188 107.195312 256.773438 107.554688 257.171875 C 121.535156 272.648438 140.179688 278.835938 159.917969 285.386719 C 163.980469 286.734375 168.179688 288.128906 172.304688 289.601562 C 185.710938 294.382812 198.664062 296.246094 211.105469 295.214844 C 198.578125 296.621094 185.53125 295.28125 172.214844 291.117188 L 170.21875 290.5 C 147.707031 283.472656 124.425781 276.207031 107.972656 257.839844 C 107.695312 257.527344 107.421875 257.21875 107.144531 256.902344 C 104.222656 253.5625 101.550781 250.0625 99.101562 246.445312 C 101.386719 249.761719 103.84375 252.953125 106.480469 255.964844 Z M 106.675781 257.28125 C 106.957031 257.601562 107.238281 257.925781 107.523438 258.242188 C 124.085938 276.738281 147.445312 284.023438 170.039062 291.074219 L 172.035156 291.695312 C 185.433594 295.882812 198.554688 297.234375 211.160156 295.820312 C 198.464844 297.613281 185.242188 296.777344 171.921875 293.191406 C 150.144531 287.335938 125.519531 278.679688 107.949219 258.898438 C 107.761719 258.6875 107.585938 258.484375 107.398438 258.273438 C 105.417969 256.007812 103.550781 253.667969 101.785156 251.269531 C 103.339844 253.324219 104.96875 255.332031 106.671875 257.28125 Z M 107.917969 261.015625 C 105.953125 258.769531 104.09375 256.453125 102.335938 254.085938 C 103.90625 256.152344 105.542969 258.175781 107.265625 260.140625 L 107.46875 260.371094 C 122.855469 277.792969 144.398438 289.738281 171.503906 295.878906 C 184.285156 298.773438 196.925781 299.296875 209.078125 297.5625 C 173.09375 303.738281 134.265625 291.140625 107.921875 261.015625 Z M 171.636719 295.265625 C 144.664062 289.160156 123.230469 277.277344 107.933594 259.957031 L 107.742188 259.738281 C 105.828125 257.546875 104.015625 255.292969 102.292969 252.984375 C 103.773438 254.921875 105.3125 256.820312 106.929688 258.664062 C 107.117188 258.878906 107.304688 259.089844 107.496094 259.304688 C 125.171875 279.207031 149.902344 287.90625 171.765625 293.789062 C 187.308594 297.96875 202.71875 298.441406 217.320312 295.367188 C 202.742188 298.785156 187.292969 298.8125 171.636719 295.265625 Z M 258.59375 274.386719 C 258.421875 274.535156 258.246094 274.683594 258.070312 274.828125 C 257.875 274.988281 257.683594 275.148438 257.488281 275.308594 C 257.324219 275.441406 257.164062 275.570312 257 275.699219 C 256.832031 275.832031 256.660156 275.972656 256.496094 276.101562 C 256.355469 276.210938 256.214844 276.316406 256.078125 276.417969 C 255.886719 276.566406 255.695312 276.707031 255.503906 276.851562 C 255.476562 276.875 255.445312 276.898438 255.417969 276.917969 C 255.027344 277.207031 254.636719 277.492188 254.246094 277.773438 C 254.226562 277.785156 254.207031 277.796875 254.191406 277.8125 C 253.597656 278.226562 253.007812 278.632812 252.417969 279.035156 C 252.308594 279.105469 252.199219 279.183594 252.089844 279.257812 C 251.773438 279.464844 251.453125 279.691406 251.132812 279.894531 C 251.046875 279.949219 250.964844 279.996094 250.882812 280.054688 C 250.03125 280.597656 249.1875 281.105469 248.347656 281.605469 C 248.058594 281.773438 247.769531 281.945312 247.480469 282.109375 C 246.863281 282.464844 246.253906 282.800781 245.644531 283.132812 C 245.171875 283.382812 244.707031 283.628906 244.238281 283.871094 C 244.179688 283.898438 244.121094 283.929688 244.0625 283.960938 C 243.925781 284.03125 243.792969 284.09375 243.65625 284.164062 C 211.792969 299.867188 192.84375 281.03125 175.898438 264.1875 C 163.4375 251.796875 148.78125 251.5 135.851562 251.238281 C 125.296875 251.027344 115.328125 250.824219 108.21875 244.074219 C 104.71875 240.753906 81.039062 216.886719 81.417969 180.316406 C 81.503906 175.648438 81.953125 170.855469 82.835938 165.964844 C 82.871094 165.769531 82.90625 165.578125 82.945312 165.382812 C 83.09375 164.570312 83.273438 163.75 83.445312 162.933594 C 83.617188 162.160156 83.785156 161.386719 83.976562 160.609375 C 84.054688 160.285156 84.140625 159.957031 84.222656 159.628906 C 84.519531 158.460938 84.832031 157.292969 85.175781 156.125 C 85.175781 156.125 85.175781 156.125 85.175781 156.117188 C 85.554688 154.832031 85.96875 153.542969 86.40625 152.253906 C 86.457031 152.109375 86.503906 151.960938 86.558594 151.8125 C 86.917969 150.773438 87.300781 149.734375 87.699219 148.695312 C 87.878906 148.238281 88.054688 147.777344 88.238281 147.320312 C 88.421875 146.855469 88.621094 146.386719 88.820312 145.921875 C 88.902344 145.722656 88.984375 145.523438 89.066406 145.324219 C 89.105469 145.238281 89.140625 145.152344 89.175781 145.066406 C 89.441406 144.449219 89.707031 143.832031 89.984375 143.21875 C 90.019531 143.144531 90.050781 143.070312 90.082031 142.992188 C 90.101562 142.949219 90.125 142.90625 90.144531 142.863281 C 90.230469 142.683594 90.316406 142.5 90.402344 142.320312 C 90.613281 141.863281 90.835938 141.40625 91.058594 140.949219 C 91.105469 140.847656 91.15625 140.746094 91.203125 140.648438 C 91.300781 140.453125 91.394531 140.261719 91.492188 140.066406 C 91.566406 139.917969 91.640625 139.769531 91.714844 139.621094 C 91.964844 139.128906 92.203125 138.636719 92.457031 138.148438 C 98.332031 127.070312 106.210938 117.292969 115.6875 108.992188 C 159.585938 70.550781 227.554688 76.164062 267.210938 121.511719 C 306.863281 166.855469 303.484375 235.105469 259.589844 273.546875 C 259.261719 273.832031 258.925781 274.109375 258.597656 274.394531 Z M 258.59375 274.386719 " clip-rule="nonzero"/></clipPath><linearGradient x1="-153.394968" gradientTransform="matrix(0.142685, 0.280602, -0.280162, 0.142462, 233.044749, 44.799869)" y1="339.92001" x2="866.379014" gradientUnits="userSpaceOnUse" y2="339.92001" id="7d0034ab07"><stop stop-opacity="1" stop-color="rgb(16.099548%, 39.599609%, 94.499207%)" offset="0"/><stop stop-opacity="1" stop-color="rgb(16.099548%, 39.599609%, 94.499207%)" offset="0.0625"/><stop stop-opacity="1" stop-color="rgb(15.988159%, 39.668274%, 94.535828%)" offset="0.09375"/><stop stop-opacity="1" stop-color="rgb(15.531921%, 39.958191%, 94.692993%)" offset="0.0976563"/><stop stop-opacity="1" stop-color="rgb(15.185547%, 40.177917%, 94.812012%)" offset="0.101563"/><stop stop-opacity="1" stop-color="rgb(14.837646%, 40.397644%, 94.929504%)" offset="0.105469"/><stop stop-opacity="1" stop-color="rgb(14.491272%, 40.617371%, 95.048523%)" offset="0.109375"/><stop stop-opacity="1" stop-color="rgb(14.143372%, 40.837097%, 95.166016%)" offset="0.113281"/><stop stop-opacity="1" stop-color="rgb(13.796997%, 41.05835%, 95.285034%)" offset="0.117188"/><stop stop-opacity="1" stop-color="rgb(13.449097%, 41.278076%, 95.404053%)" offset="0.121094"/><stop stop-opacity="1" stop-color="rgb(13.102722%, 41.497803%, 95.523071%)" offset="0.125"/><stop stop-opacity="1" stop-color="rgb(12.756348%, 41.717529%, 95.640564%)" offset="0.128906"/><stop stop-opacity="1" stop-color="rgb(12.409973%, 41.937256%, 95.759583%)" offset="0.132812"/><stop stop-opacity="1" stop-color="rgb(12.062073%, 42.156982%, 95.877075%)" offset="0.136719"/><stop stop-opacity="1" stop-color="rgb(11.715698%, 42.376709%, 95.996094%)" offset="0.140625"/><stop stop-opacity="1" stop-color="rgb(11.367798%, 42.596436%, 96.115112%)" offset="0.144531"/><stop stop-opacity="1" stop-color="rgb(11.021423%, 42.816162%, 96.234131%)" offset="0.148438"/><stop stop-opacity="1" stop-color="rgb(10.673523%, 43.035889%, 96.351624%)" offset="0.152344"/><stop stop-opacity="1" stop-color="rgb(10.327148%, 43.255615%, 96.470642%)" offset="0.15625"/><stop stop-opacity="1" stop-color="rgb(9.980774%, 43.475342%, 96.588135%)" offset="0.160156"/><stop stop-opacity="1" stop-color="rgb(9.634399%, 43.695068%, 96.707153%)" offset="0.164063"/><stop stop-opacity="1" stop-color="rgb(9.286499%, 43.914795%, 96.826172%)" offset="0.167969"/><stop stop-opacity="1" stop-color="rgb(8.940125%, 44.134521%, 96.94519%)" offset="0.171875"/><stop stop-opacity="1" stop-color="rgb(8.592224%, 44.354248%, 97.062683%)" offset="0.175781"/><stop stop-opacity="1" stop-color="rgb(8.24585%, 44.573975%, 97.181702%)" offset="0.179688"/><stop stop-opacity="1" stop-color="rgb(7.897949%, 44.793701%, 97.30072%)" offset="0.183594"/><stop stop-opacity="1" stop-color="rgb(7.551575%, 45.013428%, 97.419739%)" offset="0.1875"/><stop stop-opacity="1" stop-color="rgb(7.2052%, 45.233154%, 97.537231%)" offset="0.191406"/><stop stop-opacity="1" stop-color="rgb(6.858826%, 45.454407%, 97.65625%)" offset="0.195313"/><stop stop-opacity="1" stop-color="rgb(6.510925%, 45.674133%, 97.773743%)" offset="0.199219"/><stop stop-opacity="1" stop-color="rgb(6.164551%, 45.89386%, 97.892761%)" offset="0.203125"/><stop stop-opacity="1" stop-color="rgb(5.81665%, 46.113586%, 98.01178%)" offset="0.207031"/><stop stop-opacity="1" stop-color="rgb(5.470276%, 46.333313%, 98.130798%)" offset="0.210938"/><stop stop-opacity="1" stop-color="rgb(5.122375%, 46.55304%, 98.248291%)" offset="0.214844"/><stop stop-opacity="1" stop-color="rgb(4.776001%, 46.772766%, 98.36731%)" offset="0.21875"/><stop stop-opacity="1" stop-color="rgb(4.429626%, 46.992493%, 98.484802%)" offset="0.222656"/><stop stop-opacity="1" stop-color="rgb(4.083252%, 47.212219%, 98.603821%)" offset="0.226563"/><stop stop-opacity="1" stop-color="rgb(3.735352%, 47.431946%, 98.722839%)" offset="0.230469"/><stop stop-opacity="1" stop-color="rgb(3.388977%, 47.651672%, 98.841858%)" offset="0.234375"/><stop stop-opacity="1" stop-color="rgb(3.041077%, 47.871399%, 98.959351%)" offset="0.238281"/><stop stop-opacity="1" stop-color="rgb(2.694702%, 48.091125%, 99.078369%)" offset="0.242188"/><stop stop-opacity="1" stop-color="rgb(2.346802%, 48.310852%, 99.195862%)" offset="0.246094"/><stop stop-opacity="1" stop-color="rgb(2.000427%, 48.530579%, 99.31488%)" offset="0.25"/><stop stop-opacity="1" stop-color="rgb(1.654053%, 48.750305%, 99.433899%)" offset="0.253906"/><stop stop-opacity="1" stop-color="rgb(1.307678%, 48.970032%, 99.552917%)" offset="0.257813"/><stop stop-opacity="1" stop-color="rgb(0.959778%, 49.189758%, 99.67041%)" offset="0.261719"/><stop stop-opacity="1" stop-color="rgb(0.613403%, 49.411011%, 99.789429%)" offset="0.265625"/><stop stop-opacity="1" stop-color="rgb(0.344849%, 49.580383%, 99.880981%)" offset="0.269531"/><stop stop-opacity="1" stop-color="rgb(0.0762939%, 49.751282%, 99.972534%)" offset="0.273438"/><stop stop-opacity="1" stop-color="rgb(0.40741%, 49.54071%, 99.859619%)" offset="0.277344"/><stop stop-opacity="1" stop-color="rgb(0.738525%, 49.331665%, 99.746704%)" offset="0.28125"/><stop stop-opacity="1" stop-color="rgb(1.069641%, 49.121094%, 99.633789%)" offset="0.285156"/><stop stop-opacity="1" stop-color="rgb(1.400757%, 48.912048%, 99.520874%)" offset="0.289063"/><stop stop-opacity="1" stop-color="rgb(1.731873%, 48.701477%, 99.407959%)" offset="0.292969"/><stop stop-opacity="1" stop-color="rgb(2.062988%, 48.492432%, 99.295044%)" offset="0.296875"/><stop stop-opacity="1" stop-color="rgb(2.394104%, 48.28186%, 99.180603%)" offset="0.300781"/><stop stop-opacity="1" stop-color="rgb(2.72522%, 48.072815%, 99.067688%)" offset="0.304688"/><stop stop-opacity="1" stop-color="rgb(3.056335%, 47.862244%, 98.954773%)" offset="0.308594"/><stop stop-opacity="1" stop-color="rgb(3.387451%, 47.653198%, 98.841858%)" offset="0.3125"/><stop stop-opacity="1" stop-color="rgb(3.718567%, 47.442627%, 98.728943%)" offset="0.316406"/><stop stop-opacity="1" stop-color="rgb(4.049683%, 47.233582%, 98.616028%)" offset="0.320313"/><stop stop-opacity="1" stop-color="rgb(4.380798%, 47.02301%, 98.501587%)" offset="0.324219"/><stop stop-opacity="1" stop-color="rgb(4.711914%, 46.813965%, 98.388672%)" offset="0.328125"/><stop stop-opacity="1" stop-color="rgb(5.04303%, 46.603394%, 98.275757%)" offset="0.332031"/><stop stop-opacity="1" stop-color="rgb(5.374146%, 46.394348%, 98.162842%)" offset="0.335938"/><stop stop-opacity="1" stop-color="rgb(5.705261%, 46.183777%, 98.049927%)" offset="0.339844"/><stop stop-opacity="1" stop-color="rgb(6.036377%, 45.974731%, 97.937012%)" offset="0.34375"/><stop stop-opacity="1" stop-color="rgb(6.367493%, 45.76416%, 97.822571%)" offset="0.347656"/><stop stop-opacity="1" stop-color="rgb(6.698608%, 45.555115%, 97.709656%)" offset="0.351563"/><stop stop-opacity="1" stop-color="rgb(7.029724%, 45.344543%, 97.596741%)" offset="0.355469"/><stop stop-opacity="1" stop-color="rgb(7.362366%, 45.135498%, 97.483826%)" offset="0.359375"/><stop stop-opacity="1" stop-color="rgb(7.693481%, 44.924927%, 97.370911%)" offset="0.363281"/><stop stop-opacity="1" stop-color="rgb(8.024597%, 44.715881%, 97.257996%)" offset="0.367188"/><stop stop-opacity="1" stop-color="rgb(8.355713%, 44.50531%, 97.145081%)" offset="0.371094"/><stop stop-opacity="1" stop-color="rgb(8.686829%, 44.296265%, 97.032166%)" offset="0.375"/><stop stop-opacity="1" stop-color="rgb(9.017944%, 44.085693%, 96.917725%)" offset="0.378906"/><stop stop-opacity="1" stop-color="rgb(9.34906%, 43.876648%, 96.80481%)" offset="0.382813"/><stop stop-opacity="1" stop-color="rgb(9.680176%, 43.666077%, 96.691895%)" offset="0.386719"/><stop stop-opacity="1" stop-color="rgb(10.011292%, 43.457031%, 96.578979%)" offset="0.390625"/><stop stop-opacity="1" stop-color="rgb(10.342407%, 43.24646%, 96.466064%)" offset="0.394531"/><stop stop-opacity="1" stop-color="rgb(10.673523%, 43.037415%, 96.353149%)" offset="0.398438"/><stop stop-opacity="1" stop-color="rgb(11.004639%, 42.826843%, 96.238708%)" offset="0.402344"/><stop stop-opacity="1" stop-color="rgb(11.335754%, 42.617798%, 96.125793%)" offset="0.40625"/><stop stop-opacity="1" stop-color="rgb(11.66687%, 42.407227%, 96.012878%)" offset="0.410156"/><stop stop-opacity="1" stop-color="rgb(11.997986%, 42.198181%, 95.899963%)" offset="0.414063"/><stop stop-opacity="1" stop-color="rgb(12.329102%, 41.98761%, 95.787048%)" offset="0.417969"/><stop stop-opacity="1" stop-color="rgb(12.660217%, 41.777039%, 95.674133%)" offset="0.421875"/><stop stop-opacity="1" stop-color="rgb(12.991333%, 41.566467%, 95.561218%)" offset="0.425781"/><stop stop-opacity="1" stop-color="rgb(13.322449%, 41.357422%, 95.448303%)" offset="0.429688"/><stop stop-opacity="1" stop-color="rgb(13.653564%, 41.146851%, 95.333862%)" offset="0.433594"/><stop stop-opacity="1" stop-color="rgb(13.98468%, 40.937805%, 95.220947%)" offset="0.4375"/><stop stop-opacity="1" stop-color="rgb(14.315796%, 40.727234%, 95.108032%)" offset="0.441406"/><stop stop-opacity="1" stop-color="rgb(14.646912%, 40.518188%, 94.995117%)" offset="0.445313"/><stop stop-opacity="1" stop-color="rgb(14.978027%, 40.307617%, 94.882202%)" offset="0.449219"/><stop stop-opacity="1" stop-color="rgb(15.310669%, 40.098572%, 94.769287%)" offset="0.453125"/><stop stop-opacity="1" stop-color="rgb(15.641785%, 39.888%, 94.654846%)" offset="0.457031"/><stop stop-opacity="1" stop-color="rgb(15.9729%, 39.678955%, 94.541931%)" offset="0.460938"/><stop stop-opacity="1" stop-color="rgb(15.740967%, 39.825439%, 94.621277%)" offset="0.464844"/><stop stop-opacity="1" stop-color="rgb(15.510559%, 39.971924%, 94.700623%)" offset="0.46875"/><stop stop-opacity="1" stop-color="rgb(15.145874%, 40.202332%, 94.824219%)" offset="0.472656"/><stop stop-opacity="1" stop-color="rgb(14.781189%, 40.434265%, 94.949341%)" offset="0.476563"/><stop stop-opacity="1" stop-color="rgb(14.416504%, 40.664673%, 95.072937%)" offset="0.480469"/><stop stop-opacity="1" stop-color="rgb(14.053345%, 40.895081%, 95.198059%)" offset="0.484375"/><stop stop-opacity="1" stop-color="rgb(13.68866%, 41.125488%, 95.321655%)" offset="0.488281"/><stop stop-opacity="1" stop-color="rgb(13.323975%, 41.357422%, 95.446777%)" offset="0.492188"/><stop stop-opacity="1" stop-color="rgb(12.95929%, 41.58783%, 95.570374%)" offset="0.496094"/><stop stop-opacity="1" stop-color="rgb(12.59613%, 41.818237%, 95.695496%)" offset="0.5"/><stop stop-opacity="1" stop-color="rgb(12.231445%, 42.048645%, 95.819092%)" offset="0.503906"/><stop stop-opacity="1" stop-color="rgb(11.86676%, 42.280579%, 95.944214%)" offset="0.507812"/><stop stop-opacity="1" stop-color="rgb(11.502075%, 42.510986%, 96.069336%)" offset="0.511719"/><stop stop-opacity="1" stop-color="rgb(11.138916%, 42.741394%, 96.194458%)" offset="0.515625"/><stop stop-opacity="1" stop-color="rgb(10.774231%, 42.971802%, 96.318054%)" offset="0.519531"/><stop stop-opacity="1" stop-color="rgb(10.409546%, 43.203735%, 96.443176%)" offset="0.523438"/><stop stop-opacity="1" stop-color="rgb(10.044861%, 43.434143%, 96.566772%)" offset="0.527344"/><stop stop-opacity="1" stop-color="rgb(9.681702%, 43.664551%, 96.691895%)" offset="0.53125"/><stop stop-opacity="1" stop-color="rgb(9.317017%, 43.894958%, 96.815491%)" offset="0.535156"/><stop stop-opacity="1" stop-color="rgb(8.952332%, 44.126892%, 96.940613%)" offset="0.539062"/><stop stop-opacity="1" stop-color="rgb(8.587646%, 44.3573%, 97.064209%)" offset="0.542969"/><stop stop-opacity="1" stop-color="rgb(8.224487%, 44.587708%, 97.189331%)" offset="0.546875"/><stop stop-opacity="1" stop-color="rgb(7.859802%, 44.818115%, 97.312927%)" offset="0.550781"/><stop stop-opacity="1" stop-color="rgb(7.495117%, 45.050049%, 97.438049%)" offset="0.554688"/><stop stop-opacity="1" stop-color="rgb(7.130432%, 45.280457%, 97.561646%)" offset="0.558594"/><stop stop-opacity="1" stop-color="rgb(6.767273%, 45.510864%, 97.686768%)" offset="0.5625"/><stop stop-opacity="1" stop-color="rgb(6.402588%, 45.741272%, 97.810364%)" offset="0.566406"/><stop stop-opacity="1" stop-color="rgb(6.037903%, 45.973206%, 97.935486%)" offset="0.570312"/><stop stop-opacity="1" stop-color="rgb(5.673218%, 46.203613%, 98.060608%)" offset="0.574219"/><stop stop-opacity="1" stop-color="rgb(5.310059%, 46.434021%, 98.18573%)" offset="0.578125"/><stop stop-opacity="1" stop-color="rgb(4.945374%, 46.664429%, 98.309326%)" offset="0.582031"/><stop stop-opacity="1" stop-color="rgb(4.580688%, 46.896362%, 98.434448%)" offset="0.585938"/><stop stop-opacity="1" stop-color="rgb(4.216003%, 47.12677%, 98.558044%)" offset="0.589844"/><stop stop-opacity="1" stop-color="rgb(3.852844%, 47.358704%, 98.683167%)" offset="0.59375"/><stop stop-opacity="1" stop-color="rgb(3.488159%, 47.589111%, 98.806763%)" offset="0.597656"/><stop stop-opacity="1" stop-color="rgb(3.123474%, 47.819519%, 98.931885%)" offset="0.601562"/><stop stop-opacity="1" stop-color="rgb(2.758789%, 48.049927%, 99.055481%)" offset="0.605469"/><stop stop-opacity="1" stop-color="rgb(2.39563%, 48.28186%, 99.180603%)" offset="0.609375"/><stop stop-opacity="1" stop-color="rgb(2.030945%, 48.512268%, 99.304199%)" offset="0.613281"/><stop stop-opacity="1" stop-color="rgb(1.66626%, 48.742676%, 99.429321%)" offset="0.617188"/><stop stop-opacity="1" stop-color="rgb(1.301575%, 48.973083%, 99.552917%)" offset="0.621094"/><stop stop-opacity="1" stop-color="rgb(0.938416%, 49.205017%, 99.67804%)" offset="0.625"/><stop stop-opacity="1" stop-color="rgb(0.57373%, 49.435425%, 99.801636%)" offset="0.628906"/><stop stop-opacity="1" stop-color="rgb(0.209045%, 49.665833%, 99.926758%)" offset="0.632812"/><stop stop-opacity="1" stop-color="rgb(0.408936%, 49.539185%, 99.858093%)" offset="0.636719"/><stop stop-opacity="1" stop-color="rgb(0.608826%, 49.412537%, 99.790955%)" offset="0.640625"/><stop stop-opacity="1" stop-color="rgb(1.037598%, 49.14093%, 99.64447%)" offset="0.644531"/><stop stop-opacity="1" stop-color="rgb(1.46637%, 48.869324%, 99.497986%)" offset="0.648438"/><stop stop-opacity="1" stop-color="rgb(1.895142%, 48.597717%, 99.351501%)" offset="0.652344"/><stop stop-opacity="1" stop-color="rgb(2.323914%, 48.327637%, 99.205017%)" offset="0.65625"/><stop stop-opacity="1" stop-color="rgb(2.75116%, 48.05603%, 99.058533%)" offset="0.660156"/><stop stop-opacity="1" stop-color="rgb(3.179932%, 47.784424%, 98.912048%)" offset="0.664062"/><stop stop-opacity="1" stop-color="rgb(3.608704%, 47.512817%, 98.765564%)" offset="0.667969"/><stop stop-opacity="1" stop-color="rgb(4.037476%, 47.241211%, 98.61908%)" offset="0.671875"/><stop stop-opacity="1" stop-color="rgb(4.466248%, 46.969604%, 98.472595%)" offset="0.675781"/><stop stop-opacity="1" stop-color="rgb(4.89502%, 46.697998%, 98.326111%)" offset="0.679688"/><stop stop-opacity="1" stop-color="rgb(5.323792%, 46.426392%, 98.179626%)" offset="0.683594"/><stop stop-opacity="1" stop-color="rgb(5.752563%, 46.154785%, 98.034668%)" offset="0.6875"/><stop stop-opacity="1" stop-color="rgb(6.17981%, 45.883179%, 97.888184%)" offset="0.691406"/><stop stop-opacity="1" stop-color="rgb(6.608582%, 45.611572%, 97.741699%)" offset="0.695312"/><stop stop-opacity="1" stop-color="rgb(7.037354%, 45.339966%, 97.595215%)" offset="0.699219"/><stop stop-opacity="1" stop-color="rgb(7.466125%, 45.068359%, 97.44873%)" offset="0.703125"/><stop stop-opacity="1" stop-color="rgb(7.894897%, 44.796753%, 97.302246%)" offset="0.707031"/><stop stop-opacity="1" stop-color="rgb(8.323669%, 44.525146%, 97.155762%)" offset="0.710938"/><stop stop-opacity="1" stop-color="rgb(8.752441%, 44.25354%, 97.009277%)" offset="0.714844"/><stop stop-opacity="1" stop-color="rgb(9.181213%, 43.981934%, 96.862793%)" offset="0.71875"/><stop stop-opacity="1" stop-color="rgb(9.608459%, 43.710327%, 96.716309%)" offset="0.722656"/><stop stop-opacity="1" stop-color="rgb(10.037231%, 43.438721%, 96.569824%)" offset="0.726562"/><stop stop-opacity="1" stop-color="rgb(10.466003%, 43.167114%, 96.42334%)" offset="0.730469"/><stop stop-opacity="1" stop-color="rgb(10.894775%, 42.897034%, 96.276855%)" offset="0.734375"/><stop stop-opacity="1" stop-color="rgb(11.323547%, 42.625427%, 96.130371%)" offset="0.738281"/><stop stop-opacity="1" stop-color="rgb(11.752319%, 42.353821%, 95.983887%)" offset="0.742188"/><stop stop-opacity="1" stop-color="rgb(12.181091%, 42.082214%, 95.837402%)" offset="0.746094"/><stop stop-opacity="1" stop-color="rgb(12.609863%, 41.810608%, 95.690918%)" offset="0.75"/><stop stop-opacity="1" stop-color="rgb(13.037109%, 41.539001%, 95.544434%)" offset="0.753906"/><stop stop-opacity="1" stop-color="rgb(13.465881%, 41.267395%, 95.397949%)" offset="0.757812"/><stop stop-opacity="1" stop-color="rgb(13.894653%, 40.995789%, 95.251465%)" offset="0.761719"/><stop stop-opacity="1" stop-color="rgb(14.323425%, 40.724182%, 95.106506%)" offset="0.765625"/><stop stop-opacity="1" stop-color="rgb(14.752197%, 40.452576%, 94.960022%)" offset="0.769531"/><stop stop-opacity="1" stop-color="rgb(15.180969%, 40.180969%, 94.813538%)" offset="0.773438"/><stop stop-opacity="1" stop-color="rgb(15.609741%, 39.909363%, 94.667053%)" offset="0.777344"/><stop stop-opacity="1" stop-color="rgb(16.038513%, 39.637756%, 94.520569%)" offset="0.78125"/><stop stop-opacity="1" stop-color="rgb(15.730286%, 39.833069%, 94.624329%)" offset="0.785156"/><stop stop-opacity="1" stop-color="rgb(15.422058%, 40.028381%, 94.729614%)" offset="0.789062"/><stop stop-opacity="1" stop-color="rgb(15.057373%, 40.258789%, 94.854736%)" offset="0.792969"/><stop stop-opacity="1" stop-color="rgb(14.694214%, 40.489197%, 94.979858%)" offset="0.796875"/><stop stop-opacity="1" stop-color="rgb(14.329529%, 40.719604%, 95.103455%)" offset="0.800781"/><stop stop-opacity="1" stop-color="rgb(13.964844%, 40.951538%, 95.228577%)" offset="0.804688"/><stop stop-opacity="1" stop-color="rgb(13.600159%, 41.181946%, 95.352173%)" offset="0.808594"/><stop stop-opacity="1" stop-color="rgb(13.237%, 41.412354%, 95.477295%)" offset="0.8125"/><stop stop-opacity="1" stop-color="rgb(12.872314%, 41.642761%, 95.600891%)" offset="0.816406"/><stop stop-opacity="1" stop-color="rgb(12.507629%, 41.874695%, 95.726013%)" offset="0.820312"/><stop stop-opacity="1" stop-color="rgb(12.142944%, 42.105103%, 95.849609%)" offset="0.824219"/><stop stop-opacity="1" stop-color="rgb(11.779785%, 42.33551%, 95.974731%)" offset="0.828125"/><stop stop-opacity="1" stop-color="rgb(11.4151%, 42.565918%, 96.098328%)" offset="0.832031"/><stop stop-opacity="1" stop-color="rgb(11.050415%, 42.797852%, 96.22345%)" offset="0.835938"/><stop stop-opacity="1" stop-color="rgb(10.68573%, 43.028259%, 96.347046%)" offset="0.839844"/><stop stop-opacity="1" stop-color="rgb(10.322571%, 43.258667%, 96.472168%)" offset="0.84375"/><stop stop-opacity="1" stop-color="rgb(9.957886%, 43.489075%, 96.595764%)" offset="0.847656"/><stop stop-opacity="1" stop-color="rgb(9.593201%, 43.721008%, 96.720886%)" offset="0.851562"/><stop stop-opacity="1" stop-color="rgb(9.228516%, 43.951416%, 96.846008%)" offset="0.855469"/><stop stop-opacity="1" stop-color="rgb(8.865356%, 44.181824%, 96.97113%)" offset="0.859375"/><stop stop-opacity="1" stop-color="rgb(8.500671%, 44.412231%, 97.094727%)" offset="0.863281"/><stop stop-opacity="1" stop-color="rgb(8.135986%, 44.644165%, 97.219849%)" offset="0.867188"/><stop stop-opacity="1" stop-color="rgb(7.771301%, 44.874573%, 97.343445%)" offset="0.871094"/><stop stop-opacity="1" stop-color="rgb(7.408142%, 45.10498%, 97.468567%)" offset="0.875"/><stop stop-opacity="1" stop-color="rgb(7.043457%, 45.335388%, 97.592163%)" offset="0.878906"/><stop stop-opacity="1" stop-color="rgb(6.678772%, 45.567322%, 97.717285%)" offset="0.882812"/><stop stop-opacity="1" stop-color="rgb(6.314087%, 45.797729%, 97.840881%)" offset="0.886719"/><stop stop-opacity="1" stop-color="rgb(5.950928%, 46.028137%, 97.966003%)" offset="0.890625"/><stop stop-opacity="1" stop-color="rgb(5.586243%, 46.258545%, 98.0896%)" offset="0.894531"/><stop stop-opacity="1" stop-color="rgb(5.221558%, 46.490479%, 98.214722%)" offset="0.898438"/><stop stop-opacity="1" stop-color="rgb(4.856873%, 46.720886%, 98.338318%)" offset="0.902344"/><stop stop-opacity="1" stop-color="rgb(4.493713%, 46.951294%, 98.46344%)" offset="0.90625"/><stop stop-opacity="1" stop-color="rgb(4.129028%, 47.181702%, 98.587036%)" offset="0.910156"/><stop stop-opacity="1" stop-color="rgb(3.764343%, 47.413635%, 98.712158%)" offset="0.914062"/><stop stop-opacity="1" stop-color="rgb(3.399658%, 47.644043%, 98.83728%)" offset="0.917969"/><stop stop-opacity="1" stop-color="rgb(3.036499%, 47.874451%, 98.962402%)" offset="0.921875"/><stop stop-opacity="1" stop-color="rgb(2.671814%, 48.104858%, 99.085999%)" offset="0.925781"/><stop stop-opacity="1" stop-color="rgb(2.307129%, 48.336792%, 99.211121%)" offset="0.929688"/><stop stop-opacity="1" stop-color="rgb(1.942444%, 48.5672%, 99.334717%)" offset="0.933594"/><stop stop-opacity="1" stop-color="rgb(1.579285%, 48.797607%, 99.459839%)" offset="0.9375"/><stop stop-opacity="1" stop-color="rgb(1.2146%, 49.028015%, 99.583435%)" offset="0.941406"/><stop stop-opacity="1" stop-color="rgb(0.849915%, 49.259949%, 99.708557%)" offset="0.945312"/><stop stop-opacity="1" stop-color="rgb(0.485229%, 49.490356%, 99.832153%)" offset="0.949219"/><stop stop-opacity="1" stop-color="rgb(0.12207%, 49.720764%, 99.957275%)" offset="0.953125"/><stop stop-opacity="1" stop-color="rgb(0.0610352%, 49.758911%, 99.978638%)" offset="0.96875"/><stop stop-opacity="1" stop-color="rgb(0%, 49.798584%, 100%)" offset="1"/></linearGradient></defs><g clip-path="url(#b5f5e1bf32)"><g clip-path="url(#83f4f42f95)"><g clip-path="url(#2c24b7040b)"><g clip-path="url(#54d0359464)"><path fill="url(#7d0034ab07)" d="M 260.550781 -23.359375 L -20.492188 119.550781 L 125.011719 405.703125 L 406.058594 262.792969 Z M 260.550781 -23.359375 " fill-rule="nonzero"/></g></g></g></g><g fill="#0c6cfd" fill-opacity="1"><g transform="translate(112.709988, 139.160622)"><g><path d="M 5.042969 -5.785156 L -1.578125 -11.554688 L -2.851562 -10.09375 L 1.277344 -6.496094 L -4.839844 -7.816406 L -6.113281 -6.355469 L 0.507812 -0.585938 L 1.78125 -2.042969 L -2.347656 -5.644531 L 3.769531 -4.324219 Z M 5.042969 -5.785156 "/></g></g></g><g fill="#0c6cfd" fill-opacity="1"><g transform="translate(125.133837, 126.257723)"><g><path d="M -0.175781 -8.78125 C 0.503906 -9.296875 1.414062 -9.550781 2.316406 -9.066406 L 4.011719 -10.355469 C 2.429688 -11.4375 0.273438 -11.394531 -1.269531 -10.222656 C -3.246094 -8.722656 -3.636719 -5.863281 -2.140625 -3.890625 C -0.640625 -1.914062 2.21875 -1.519531 4.195312 -3.019531 C 6.191406 -4.535156 6.558594 -7.359375 5.054688 -9.34375 L 4.875 -9.582031 L 1.425781 -6.96875 L 2.308594 -5.804688 L 4.089844 -7.15625 C 4.511719 -5.804688 3.8125 -4.933594 3.132812 -4.417969 C 2.019531 -3.574219 0.339844 -3.871094 -0.558594 -5.054688 C -1.457031 -6.238281 -1.289062 -7.9375 -0.175781 -8.78125 Z M -0.175781 -8.78125 "/></g></g></g><g fill="#0c6cfd" fill-opacity="1"><g transform="translate(141.351132, 115.279013)"><g><path d="M 1.554688 -10.46875 L 3.738281 -5.882812 C 4.257812 -4.785156 4.226562 -4.011719 3.023438 -3.441406 C 1.835938 -2.875 1.203125 -3.332031 0.679688 -4.429688 L -1.5 -9.011719 L -3.25 -8.179688 L -0.945312 -3.339844 C 0.0585938 -1.230469 1.792969 -0.710938 3.859375 -1.691406 C 5.921875 -2.675781 6.613281 -4.347656 5.609375 -6.460938 L 3.304688 -11.300781 Z M 1.554688 -10.46875 "/></g></g></g><g fill="#0c6cfd" fill-opacity="1"><g transform="translate(157.904864, 108.430171)"><g><path d="M 3.242188 -0.816406 L 5.121094 -1.292969 L 4.09375 -5.363281 L 6.117188 -10.601562 L 3.875 -10.035156 L 2.777344 -6.628906 L 0.191406 -9.105469 L -2.046875 -8.542969 L 2.214844 -4.886719 Z M 3.242188 -0.816406 "/></g></g></g><g fill="#0c6cfd" fill-opacity="1"><g transform="translate(175.7112, 104.939877)"><g><path d="M 6.453125 -0.359375 L 1.15625 -0.0625 L 0.640625 -9.265625 L 5.9375 -9.5625 L 6.03125 -7.96875 L 2.6875 -7.78125 L 2.796875 -5.75 L 5.90625 -5.921875 L 6 -4.34375 L 2.890625 -4.171875 L 3.015625 -1.78125 L 6.359375 -1.96875 Z M 5.40625 -13.9375 C 5.382812 -13.519531 5.269531 -13.160156 5.0625 -12.859375 C 4.851562 -12.566406 4.53125 -12.40625 4.09375 -12.375 C 3.84375 -12.363281 3.601562 -12.398438 3.375 -12.484375 C 3.15625 -12.566406 2.953125 -12.648438 2.765625 -12.734375 C 2.585938 -12.816406 2.414062 -12.851562 2.25 -12.84375 C 2.0625 -12.832031 1.925781 -12.773438 1.84375 -12.671875 C 1.769531 -12.578125 1.710938 -12.4375 1.671875 -12.25 L 0.875 -12.203125 C 0.90625 -12.628906 1.023438 -12.988281 1.234375 -13.28125 C 1.441406 -13.570312 1.765625 -13.734375 2.203125 -13.765625 C 2.472656 -13.773438 2.71875 -13.742188 2.9375 -13.671875 C 3.164062 -13.597656 3.367188 -13.515625 3.546875 -13.421875 C 3.734375 -13.335938 3.910156 -13.300781 4.078125 -13.3125 C 4.242188 -13.320312 4.363281 -13.375 4.4375 -13.46875 C 4.519531 -13.570312 4.578125 -13.710938 4.609375 -13.890625 Z M 4.0625 -12.015625 C 4.257812 -11.734375 4.5 -11.460938 4.78125 -11.203125 C 5.070312 -10.941406 5.351562 -10.691406 5.625 -10.453125 L 5.625 -10.28125 L 4.734375 -10.234375 C 4.472656 -10.359375 4.21875 -10.488281 3.96875 -10.625 C 3.71875 -10.757812 3.476562 -10.921875 3.25 -11.109375 C 3.03125 -10.898438 2.796875 -10.710938 2.546875 -10.546875 C 2.304688 -10.378906 2.066406 -10.222656 1.828125 -10.078125 L 0.9375 -10.015625 L 0.9375 -10.1875 C 1.15625 -10.4375 1.394531 -10.710938 1.65625 -11.015625 C 1.914062 -11.316406 2.140625 -11.617188 2.328125 -11.921875 Z M 4.0625 -12.015625 "/></g></g></g><g fill="#0c6cfd" fill-opacity="1"><g transform="translate(192.471368, 104.843637)"><g><path d="M 7.605469 1.019531 L 8.773438 -7.683594 L 6.851562 -7.941406 L 6.125 -2.515625 L 3.855469 -8.34375 L 1.9375 -8.601562 L 0.769531 0.101562 L 2.6875 0.359375 L 3.417969 -5.066406 L 5.683594 0.761719 Z M 7.605469 1.019531 "/></g></g></g><g fill="#0c6cfd" fill-opacity="1"><g transform="translate(210.19261, 108.264132)"><g/></g></g><g fill="#0c6cfd" fill-opacity="1"><g transform="translate(222.249205, 112.541228)"><g><path d="M 10.355469 5.507812 L 12.972656 -3.046875 L 10.945312 -4.128906 L 6.441406 0.457031 L 7.714844 -5.84375 L 5.6875 -6.921875 L 0.0585938 0.03125 L 1.9375 1.03125 L 5.695312 -3.832031 L 4.367188 2.324219 L 6.042969 3.214844 L 10.40625 -1.328125 L 8.472656 4.507812 Z M 10.355469 5.507812 "/></g></g></g><g fill="#0c6cfd" fill-opacity="1"><g transform="translate(240.420408, 123.658689)"><g><path d="M 2.113281 1.699219 L 7.613281 -5.148438 L 6.101562 -6.363281 L 0.605469 0.484375 Z M 2.113281 1.699219 "/></g></g></g><g fill="#0c6cfd" fill-opacity="1"><g transform="translate(250.247934, 132.329688)"><g><path d="M 5.082031 5.746094 L 11.660156 -0.0703125 L 10.378906 -1.519531 L 6.277344 2.105469 L 8.375 -3.785156 L 7.09375 -5.238281 L 0.511719 0.582031 L 1.796875 2.03125 L 5.898438 -1.59375 L 3.796875 4.296875 Z M 5.082031 5.746094 "/></g></g></g><g fill="#0c6cfd" fill-opacity="1"><g transform="translate(261.419218, 146.372955)"><g><path d="M 10.410156 0.417969 L 7.386719 2.183594 L 5.929688 -0.316406 L 8.953125 -2.078125 L 7.976562 -3.753906 L 0.390625 0.667969 L 1.367188 2.34375 L 4.414062 0.566406 L 5.871094 3.066406 L 2.824219 4.84375 L 3.863281 6.628906 L 11.453125 2.203125 Z M 10.410156 0.417969 "/></g></g></g><g fill="#0c6cfd" fill-opacity="1"><g transform="translate(269.603886, 162.458615)"><g/></g></g><g fill="#0c6cfd" fill-opacity="1"><g transform="translate(273.579427, 174.659769)"><g><path d="M 4.234375 6.449219 C 3.40625 6.238281 2.726562 5.46875 2.558594 4.582031 C 2.300781 3.183594 3.285156 1.84375 4.757812 1.570312 C 6.21875 1.300781 7.632812 2.191406 7.894531 3.589844 C 8.054688 4.464844 7.734375 5.417969 7.027344 5.917969 L 7.421875 8.039062 C 9.078125 7.125 10.039062 5.226562 9.671875 3.257812 C 9.214844 0.808594 6.851562 -0.816406 4.398438 -0.359375 C 1.949219 0.0976562 0.328125 2.460938 0.78125 4.914062 C 1.148438 6.878906 2.742188 8.316406 4.628906 8.570312 Z M 4.234375 6.449219 "/></g></g></g><g fill="#0c6cfd" fill-opacity="1"><g transform="translate(276.062122, 193.562865)"><g><path d="M 8.679688 5.765625 L 5.179688 5.699219 L 5.230469 2.808594 L 8.730469 2.871094 L 8.765625 0.933594 L -0.015625 0.773438 L -0.0507812 2.710938 L 3.476562 2.777344 L 3.421875 5.667969 L -0.101562 5.605469 L -0.140625 7.671875 L 8.640625 7.832031 Z M 8.679688 5.765625 "/></g></g></g><g fill="#0c6cfd" fill-opacity="1"><g transform="translate(274.816346, 211.455168)"><g><path d="M 10.976562 7.746094 L 11.304688 6.257812 L 9.023438 4.0625 L 8.714844 5.476562 L 10.398438 6.839844 L 8.296875 7.367188 L 7.984375 8.78125 Z M 2.085938 6.144531 L 2.5625 3.976562 L 5.375 5.734375 Z M -1.898438 8.628906 L 7.445312 7.035156 L 7.796875 5.433594 L -0.015625 0.0625 L -0.460938 2.09375 L 1.128906 3.09375 L 0.410156 6.359375 L -1.453125 6.597656 Z M -1.898438 8.628906 "/></g></g></g><g fill="#0c6cfd" fill-opacity="1"><g transform="translate(269.922288, 229.178983)"><g><path d="M 5.65625 8.945312 L 1.011719 6.894531 C -0.101562 6.40625 -0.582031 5.800781 -0.0429688 4.582031 C 0.488281 3.375 1.265625 3.308594 2.375 3.800781 L 7.019531 5.847656 L 7.800781 4.074219 L 2.898438 1.914062 C 0.757812 0.96875 -0.894531 1.707031 -1.816406 3.800781 C -2.738281 5.894531 -2.167969 7.613281 -0.03125 8.554688 L 4.875 10.714844 Z M 5.65625 8.945312 "/></g></g></g><g fill="#007fff" fill-opacity="1"><g transform="translate(144.548757, 198.852217)"><g><path d="M 44.324219 -10.261719 C 44.324219 -2.546875 42.796875 -0.507812 39.667969 -0.65625 L 39.667969 0 L 55.898438 0 L 55.898438 -0.65625 C 52.765625 -0.507812 51.238281 -2.546875 51.238281 -10.261719 L 51.238281 -39.449219 C 51.238281 -47.164062 52.765625 -49.273438 55.898438 -49.128906 L 55.898438 -49.785156 L 44.324219 -49.785156 L 27.511719 -1.820312 L 10.84375 -49.785156 L 0 -49.785156 L 0 -49.128906 C 3.128906 -49.273438 4.65625 -47.164062 4.65625 -39.449219 L 4.65625 -10.261719 C 4.65625 -2.546875 3.128906 -0.507812 0 -0.65625 L 0 0 L 10.625 0 L 10.625 -0.65625 C 7.496094 -0.507812 5.96875 -2.546875 5.96875 -10.261719 L 5.96875 -42.652344 L 20.816406 0 L 28.238281 0 L 44.324219 -45.851562 Z M 44.324219 -10.261719 "/></g></g></g><g fill="#0c6cfd" fill-opacity="1"><g transform="translate(174.978317, 229.206328)"><g><path d="M 43.667969 -43.085938 C 38.792969 -47.308594 31.878906 -49.785156 25.109375 -49.785156 C 11.28125 -49.785156 0 -38.867188 0 -24.890625 C 0 -10.625 10.84375 0 25.109375 0 C 33.1875 0 40.902344 -3.710938 45.199219 -11.425781 L 44.6875 -11.789062 C 41.921875 -7.933594 38.136719 -5.457031 33.84375 -4.441406 C 22.925781 -1.820312 11.863281 -8.296875 8.078125 -18.777344 C 4.585938 -28.457031 5.824219 -43.015625 16.886719 -47.019531 C 24.527344 -49.785156 33.480469 -47.308594 40.976562 -36.027344 Z M 43.667969 -43.085938 "/></g></g></g></svg>